<svg xmlns="http://www.w3.org/2000/svg" id="Layer_1" viewBox="0 0 1366 768" width="250" height="37">
  <style>
    .st1{fill:#c6dd7f}.st2{fill:#e9ddb7}.st3{fill:#a6d0e4}
  </style>
  <pattern id="Alyssa" width="144.13" height="138.36" overflow="visible" patternUnits="userSpaceOnUse" viewBox="99.96 -216.83 144.13 138.36">
    <path fill="none" d="M99.96-216.83h144.13v138.36H99.96z"/>
    <path d="M311.04-58.31c-11.76-1.38-19.37.35-22.65 3.11-3.02 2.54-4.96 5.41-2.25 11.93 2.94 7.09 1.53 14.73-5.54 15.91-6.22 1.04-10.89-4.84-11.24-12.28-.24-5.18-1.9-8.3-5.53-7.61-3.63.69-4.63 5.9-3.63 11.76 1.38 8.13 5.54 11.76 6.23 20.23.49 6.05-2.94 13.66-12.45 15.04-9.3 1.35-15.91-4.32-16.6-10.55-.73-6.59 3.63-10.89 3.11-17.64s-4.01-10.17-5.88-17.29c-2.77-10.55 1.21-19.02 7.78-22.65 14.75-8.15 22.83 3.64 35.97 1.56 10.9-1.73 23.35-18.16 33.03-19.54 8.23-1.17 13.83 4.67 15.04 14.01 1.21 9.34-4.74 15.27-15.39 14.01zm-42.2.52c0-2.29-1.86-4.15-4.15-4.15s-4.15 1.86-4.15 4.15 1.86 4.15 4.15 4.15 4.15-1.86 4.15-4.15zm49.46-15.39c0-.96-.78-1.73-1.73-1.73s-1.73.77-1.73 1.73.77 1.73 1.73 1.73 1.73-.77 1.73-1.73z" class="st1"/>
    <path d="M148.8-77.49c0 7.17 4.59 13.81-1 16.33-8.5 3.83-28-14.33-28-36.17 0-12 8.67-19 17.83-19 12.33 0 18 8.17 18 17.5s-6.83 13.14-6.83 21.34zm-5.41-5.37c0-1.15-.93-2.08-2.07-2.08-1.15 0-2.08.93-2.08 2.08s.93 2.08 2.08 2.08c1.14-.01 2.07-.94 2.07-2.08z" class="st2"/>
    <path d="M223.49-54c-7.87 2.74-19.44-15.3-17.67-27.02 1.24-8.23 7.12-13.19 13.09-14.22 7.53-1.3 12.9 2.6 13.3 7.24.55 6.31-3.63 7.52-4.22 14.96-.56 7.14 3.69 16.19-4.5 19.04zm-3.78-27.51c0-1.43-1.16-2.59-2.59-2.59s-2.59 1.16-2.59 2.59 1.16 2.59 2.59 2.59c1.42.01 2.59-1.16 2.59-2.59z" class="st3"/>
    <path d="M119.35-76.47c0 1.43-1.16 2.59-2.59 2.59s-2.59-1.16-2.59-2.59 1.16-2.59 2.59-2.59 2.59 1.16 2.59 2.59z" class="st2"/>
    <path d="M184.57-84.19c.74 8.1 12.67 7.02 17.9 14.21 10.52 14.47-1.22 46.37-21.63 46.37-11.74 0-24.22-9.72-24.22-29.22 0-15.83 10.17-21.5 8.25-42.17-1.01-10.83-12.5-20.34-12.5-34.75 0-5.92 3.59-13.45 11.55-13.45 7.05 0 10.82 5.95 10.82 12.9 0 6.8-5.38 15.74 1.38 19.05 5.24 2.57 13.21-4.77 19.5-6.75 5.19-1.64 12.39.22 14.75 8.5 2.53 8.88-3.25 14.75-11.59 16.69-6.31 1.49-14.8 2.18-14.21 8.62zm-15.98-30.56c0-1.82-1.47-3.29-3.29-3.29-1.81 0-3.29 1.47-3.29 3.29 0 1.81 1.47 3.29 3.29 3.29s3.29-1.47 3.29-3.29zm25.98 9.7c1.29 0 2.33-1.04 2.33-2.33s-1.04-2.33-2.33-2.33-2.33 1.04-2.33 2.33c0 1.28 1.05 2.33 2.33 2.33zm-19.98 59.67c0-1.82-1.47-3.29-3.29-3.29-1.81 0-3.29 1.47-3.29 3.29 0 1.81 1.47 3.29 3.29 3.29 1.82-.01 3.29-1.48 3.29-3.29z" class="st3"/>
    <path d="M166.91-58.31c-11.76-1.38-19.37.35-22.65 3.11-3.02 2.54-4.96 5.41-2.25 11.93 2.94 7.09 1.53 14.73-5.54 15.91-6.22 1.04-10.89-4.84-11.24-12.28-.24-5.18-1.9-8.3-5.53-7.61-3.63.69-4.63 5.9-3.63 11.76 1.38 8.13 5.54 11.76 6.23 20.23.49 6.05-2.94 13.66-12.45 15.04-9.3 1.35-15.91-4.32-16.6-10.55-.73-6.59 3.63-10.89 3.11-17.64s-4.01-10.17-5.88-17.29c-2.77-10.55 1.21-19.02 7.78-22.65 14.75-8.15 22.83 3.64 35.97 1.56 10.9-1.73 23.35-18.16 33.03-19.54 8.23-1.17 13.83 4.67 15.04 14.01 1.21 9.34-4.74 15.27-15.39 14.01zm-42.2.52c0-2.29-1.86-4.15-4.15-4.15s-4.15 1.86-4.15 4.15 1.86 4.15 4.15 4.15 4.15-1.86 4.15-4.15zm49.46-15.39c0-.96-.78-1.73-1.73-1.73-.96 0-1.73.77-1.73 1.73s.77 1.73 1.73 1.73 1.73-.77 1.73-1.73z" class="st1"/>
    <g>
      <path d="M290.28-104.84c0 6.23-4.15 10.72-8.65 11.59-4.5.87-8.32-1.28-12.97 1.21-4.84 2.59-7.09 11.07-16.78 11.07-7.96 0-15.22-7.96-15.22-18.85 0-20.23 13.14-29.23 25.59-29.23 16.62 0 28.03 12.62 28.03 24.21zm-19.71-14.35c0-2.1-1.7-3.8-3.8-3.8-2.1 0-3.8 1.7-3.8 3.8 0 2.1 1.7 3.8 3.8 3.8 2.1 0 3.8-1.7 3.8-3.8z" class="st3"/>
      <path d="M311.04-196.67c-11.76-1.38-19.37.35-22.65 3.11-3.02 2.54-4.96 5.41-2.25 11.93 2.94 7.09 1.53 14.73-5.54 15.91-6.22 1.04-10.89-4.84-11.24-12.28-.24-5.18-1.9-8.3-5.53-7.61-3.63.69-4.63 5.9-3.63 11.76 1.38 8.13 5.54 11.76 6.23 20.23.49 6.05-2.94 13.66-12.45 15.04-9.3 1.35-15.91-4.32-16.6-10.55-.73-6.59 3.63-10.89 3.11-17.64s-4.01-10.17-5.88-17.29c-2.77-10.55 1.21-19.02 7.78-22.65 14.75-8.15 22.83 3.64 35.97 1.56 10.9-1.73 23.35-18.16 33.03-19.54 8.23-1.17 13.83 4.67 15.04 14.01 1.21 9.34-4.74 15.26-15.39 14.01zm-42.2.52c0-2.29-1.86-4.15-4.15-4.15s-4.15 1.86-4.15 4.15 1.86 4.15 4.15 4.15 4.15-1.86 4.15-4.15zm49.46-15.39c0-.96-.78-1.73-1.73-1.73s-1.73.77-1.73 1.73.77 1.73 1.73 1.73 1.73-.78 1.73-1.73z" class="st1"/>
    </g>
    <g>
      <path d="M131.8-133.19c-13.96 1.99-21.17-13.33-17.67-20.33 3.67-7.33 12.12-4.17 19.5-4.17 9.67 0 16.37-7.57 20.42-2.25 4.25 5.58-5.01 24.29-22.25 26.75zm.52-17.48c0-1.24-1.01-2.25-2.25-2.25s-2.25 1.01-2.25 2.25 1.01 2.25 2.25 2.25 2.25-1.01 2.25-2.25z" class="st3"/>
      <path d="M148.8-215.86c0 7.17 4.59 13.81-1 16.33-8.5 3.83-28-14.33-28-36.17 0-12 8.67-19 17.83-19 12.33 0 18 8.17 18 17.5 0 9.34-6.83 13.15-6.83 21.34zm-5.41-5.37c0-1.15-.93-2.08-2.07-2.08-1.15 0-2.08.93-2.08 2.08s.93 2.08 2.08 2.08c1.14 0 2.07-.93 2.07-2.08z" class="st2"/>
      <path d="M146.15-104.84c0 6.23-4.15 10.72-8.65 11.59-4.5.87-8.32-1.28-12.97 1.21-4.84 2.59-7.09 11.07-16.77 11.07-7.96 0-15.22-7.96-15.22-18.85 0-20.23 13.14-29.23 25.59-29.23 16.61 0 28.02 12.62 28.02 24.21zm-19.71-14.35c0-2.1-1.7-3.8-3.8-3.8-2.1 0-3.8 1.7-3.8 3.8 0 2.1 1.7 3.8 3.8 3.8 2.1 0 3.8-1.7 3.8-3.8z" class="st3"/>
      <path d="M145.46-128.53c0 1.34-1.08 2.42-2.42 2.42-1.34 0-2.42-1.08-2.42-2.42 0-1.34 1.08-2.42 2.42-2.42 1.34 0 2.42 1.08 2.42 2.42z" class="st1"/>
      <path d="M229.16-147.04c-3.19 4.68 1.04 10.72-1.38 15.22s-6.74 5.02-9.86 2.6c-3.63-2.83-3.41-6.64-8.3-8.82-5.53-2.46-17.98 2.25-19.71-7.26-.88-4.81 2.38-8.57 7.26-9.68 6.05-1.38 9.35-.18 15.39-3.11 6.05-2.94 11.24-8.99 22.14-12.11 10.41-2.97 16.07 1.56 16.6 5.88 1.04 8.46-17.13 9.94-22.14 17.28zm-2.25-7.43c0-1.24-1.01-2.25-2.25-2.25s-2.25 1.01-2.25 2.25 1.01 2.25 2.25 2.25c1.25-.01 2.25-1.01 2.25-2.25z" class="st3"/>
      <path d="M256.13-107.86c0 17.17-14.5 25.5-27 22.83-10.26-2.19-12.83-17.33-16.67-26.17-3.71-8.56-8.83-22.5-20.17-22.5-11.2 0-12.83 14.5-23.67 14.5-11 0-24.5-15.67-24.5-39.67 0-14.67 9.8-31.46 20.83-30.67 11.67.83 4.5 19.67 15.33 19.67 9.5 0 7.86-16.26 9.17-23.33 1.67-9 6.83-14.17 18.5-13.17 14.44 1.24 22.33 13.5 18.87 23.34-4.03 11.45-23.87 17.32-21.54 30.49 1.35 7.59 13 12 26 16.17 14.54 4.67 24.85 11.35 24.85 28.51zm-44.95-75.84c0 1.82 1.47 3.29 3.29 3.29 1.81 0 3.29-1.47 3.29-3.29s-1.47-3.29-3.29-3.29-3.29 1.47-3.29 3.29zm-46.7 24.9c0-.96-.77-1.73-1.73-1.73s-1.73.78-1.73 1.73c0 .96.78 1.73 1.73 1.73.96 0 1.73-.77 1.73-1.73zm17.47 10.72c0-2.1-1.7-3.8-3.8-3.8-2.1 0-3.8 1.7-3.8 3.8 0 2.1 1.71 3.8 3.8 3.8 2.1.01 3.8-1.69 3.8-3.8zm19.89-15.56c0-.86-.7-1.56-1.56-1.56-.86 0-1.56.7-1.56 1.56 0 .86.7 1.56 1.56 1.56.86 0 1.56-.7 1.56-1.56zm29.64 54.7c0-1.75-1.42-3.17-3.17-3.17s-3.17 1.42-3.17 3.17 1.42 3.17 3.17 3.17 3.17-1.42 3.17-3.17z" class="st2"/>
      <path d="M223.49-192.36c-7.87 2.74-19.44-15.3-17.67-27.02 1.24-8.23 7.12-13.19 13.09-14.22 7.53-1.3 12.9 2.6 13.3 7.24.55 6.31-3.63 7.52-4.22 14.96-.56 7.14 3.69 16.19-4.5 19.04zm-3.78-27.51c0-1.43-1.16-2.59-2.59-2.59s-2.59 1.16-2.59 2.59 1.16 2.59 2.59 2.59c1.42 0 2.59-1.16 2.59-2.59z" class="st3"/>
      <path d="M119.35-214.83c0 1.43-1.16 2.59-2.59 2.59s-2.59-1.16-2.59-2.59 1.16-2.59 2.59-2.59 2.59 1.16 2.59 2.59zM253.35-128.09c0-8.41-5.08-15.23-11.34-15.23s-11.34 6.82-11.34 15.23 5.08 12.44 11.34 12.44 11.34-4.03 11.34-12.44z" class="st2"/>
      <path d="M184.57-222.55c.74 8.1 12.67 7.02 17.9 14.21 10.52 14.47-1.22 46.37-21.63 46.37-11.74 0-24.22-9.72-24.22-29.22 0-15.83 10.17-21.5 8.25-42.17-1.01-10.83-12.5-20.34-12.5-34.75 0-5.92 3.59-13.45 11.55-13.45 7.05 0 10.82 5.95 10.82 12.9 0 6.8-5.38 15.74 1.38 19.05 5.24 2.57 13.21-4.77 19.5-6.75 5.19-1.64 12.39.22 14.75 8.5 2.53 8.88-3.25 14.75-11.59 16.69-6.31 1.48-14.8 2.18-14.21 8.62zm-15.98-30.56c0-1.82-1.47-3.29-3.29-3.29-1.81 0-3.29 1.47-3.29 3.29 0 1.81 1.47 3.29 3.29 3.29s3.29-1.48 3.29-3.29zm25.98 9.7c1.29 0 2.33-1.04 2.33-2.33s-1.04-2.33-2.33-2.33-2.33 1.04-2.33 2.33c0 1.28 1.05 2.33 2.33 2.33zm-19.98 59.67c0-1.82-1.47-3.29-3.29-3.29-1.81 0-3.29 1.47-3.29 3.29 0 1.81 1.47 3.29 3.29 3.29 1.82-.01 3.29-1.48 3.29-3.29z" class="st3"/>
      <path d="M166.91-196.67c-11.76-1.38-19.37.35-22.65 3.11-3.02 2.54-4.96 5.41-2.25 11.93 2.94 7.09 1.53 14.73-5.54 15.91-6.22 1.04-10.89-4.84-11.24-12.28-.24-5.18-1.9-8.3-5.53-7.61-3.63.69-4.63 5.9-3.63 11.76 1.38 8.13 5.54 11.76 6.23 20.23.49 6.05-2.94 13.66-12.45 15.04-9.3 1.35-15.91-4.32-16.6-10.55-.73-6.59 3.63-10.89 3.11-17.64s-4.01-10.17-5.88-17.29c-2.77-10.55 1.21-19.02 7.78-22.65 14.75-8.15 22.83 3.64 35.97 1.56 10.9-1.73 23.35-18.16 33.03-19.54 8.23-1.17 13.83 4.67 15.04 14.01 1.21 9.34-4.74 15.26-15.39 14.01zm-42.2.52c0-2.29-1.86-4.15-4.15-4.15s-4.15 1.86-4.15 4.15 1.86 4.15 4.15 4.15 4.15-1.86 4.15-4.15zm49.46-15.39c0-.96-.78-1.73-1.73-1.73-.96 0-1.73.77-1.73 1.73s.77 1.73 1.73 1.73 1.73-.78 1.73-1.73zM230.2-174.36c0 .76-.62 1.38-1.38 1.38-.76 0-1.38-.62-1.38-1.38 0-.76.62-1.38 1.38-1.38.76 0 1.38.62 1.38 1.38z" class="st1"/>
      <path d="M235.73-212.75c0 1.24-1.01 2.25-2.25 2.25s-2.25-1.01-2.25-2.25 1.01-2.25 2.25-2.25 2.25 1.01 2.25 2.25z" class="st2"/>
      <path d="M152.21-189.58c0 .67-.54 1.21-1.21 1.21s-1.21-.54-1.21-1.21.54-1.21 1.21-1.21 1.21.54 1.21 1.21zM148.57-121.1c0 .76-.62 1.38-1.38 1.38s-1.38-.62-1.38-1.38c0-.76.62-1.38 1.38-1.38s1.38.62 1.38 1.38z" class="st3"/>
      <path d="M233.14-143.06c0 .67-.54 1.21-1.21 1.21-.67 0-1.21-.54-1.21-1.21 0-.67.54-1.21 1.21-1.21.67 0 1.21.54 1.21 1.21z" class="st2"/>
      <path d="M195.85-125.13c0 1.88-1.53 3.41-3.41 3.41-1.88 0-3.41-1.53-3.41-3.41 0-1.88 1.53-3.41 3.41-3.41 1.88 0 3.41 1.52 3.41 3.41z" class="st1"/>
      <path d="M200.83-85.28c0 1.16-.94 2.1-2.1 2.1s-2.1-.94-2.1-2.1.94-2.1 2.1-2.1 2.1.94 2.1 2.1zM162.03-91.58c0 .87-.7 1.57-1.57 1.57-.87 0-1.57-.7-1.57-1.57 0-.87.71-1.57 1.57-1.57.87 0 1.57.71 1.57 1.57z" class="st2"/>
      <circle cx="233.08" cy="-205.62" r="2.62" class="st1"/>
      <circle cx="223.12" cy="-170.75" r="2.36" class="st3"/>
      <path d="M127.69-164.2c0 1.45-1.17 2.62-2.62 2.62-1.45 0-2.62-1.17-2.62-2.62 0-1.45 1.17-2.62 2.62-2.62 1.44 0 2.62 1.17 2.62 2.62z" class="st2"/>
      <path d="M122.7-171.28c0 .72-.59 1.31-1.31 1.31-.72 0-1.31-.59-1.31-1.31s.59-1.31 1.31-1.31c.73 0 1.31.59 1.31 1.31z" class="st3"/>
      <path d="M186.94-119.37c0 .87-.71 1.57-1.57 1.57-.87 0-1.57-.7-1.57-1.57 0-.87.7-1.57 1.57-1.57.86 0 1.57.7 1.57 1.57z" class="st2"/>
    </g>
    <g>
      <path d="M85.03-147.04c-3.19 4.68 1.04 10.72-1.38 15.22s-6.74 5.02-9.86 2.6c-3.63-2.83-3.41-6.64-8.3-8.82-5.53-2.46-17.98 2.25-19.71-7.26-.88-4.81 2.38-8.57 7.26-9.68 6.05-1.38 9.35-.18 15.39-3.11 6.05-2.94 11.24-8.99 22.14-12.11 10.41-2.97 16.07 1.56 16.6 5.88 1.04 8.46-17.13 9.94-22.14 17.28zm-2.24-7.43c0-1.24-1.01-2.25-2.25-2.25s-2.25 1.01-2.25 2.25 1.01 2.25 2.25 2.25c1.24-.01 2.25-1.01 2.25-2.25z" class="st3"/>
      <path d="M112-107.86c0 17.17-14.5 25.5-27 22.83-10.26-2.19-12.83-17.33-16.67-26.17-3.71-8.56-8.83-22.5-20.17-22.5-11.2 0-12.83 14.5-23.67 14.5-11 0-24.5-15.67-24.5-39.67 0-14.67 9.8-31.46 20.83-30.67 11.67.83 4.5 19.67 15.33 19.67 9.5 0 7.86-16.26 9.17-23.33 1.67-9 6.83-14.17 18.5-13.17 14.44 1.24 22.33 13.5 18.87 23.34-4.03 11.45-23.87 17.32-21.54 30.49 1.35 7.59 13 12 26 16.17C101.7-131.7 112-125.02 112-107.86zM67.05-183.7c0 1.82 1.47 3.29 3.29 3.29 1.81 0 3.29-1.47 3.29-3.29s-1.47-3.29-3.29-3.29-3.29 1.47-3.29 3.29zm-46.69 24.9c0-.96-.77-1.73-1.73-1.73s-1.73.78-1.73 1.73c0 .96.78 1.73 1.73 1.73s1.73-.77 1.73-1.73zm17.46 10.72c0-2.1-1.7-3.8-3.8-3.8-2.1 0-3.8 1.7-3.8 3.8 0 2.1 1.71 3.8 3.8 3.8 2.1.01 3.8-1.69 3.8-3.8zm19.89-15.56c0-.86-.7-1.56-1.56-1.56-.86 0-1.56.7-1.56 1.56 0 .86.7 1.56 1.56 1.56.86 0 1.56-.7 1.56-1.56zm29.64 54.7c0-1.75-1.42-3.17-3.17-3.17s-3.17 1.42-3.17 3.17 1.42 3.17 3.17 3.17 3.17-1.42 3.17-3.17z" class="st2"/>
      <path d="M109.22-128.09c0-8.41-5.08-15.23-11.34-15.23s-11.34 6.82-11.34 15.23 5.08 12.44 11.34 12.44 11.34-4.03 11.34-12.44z" class="st2"/>
    </g>
  </pattern>
  <path fill="url(#Alyssa)" stroke="#000" stroke-miterlimit="10" stroke-width=".5" d="M361.21 217.26c2.83-.42 4.3-2.19 4.3-5.52 0-3.57-2.11-5.86-4.88-5.86h-5.93v18.87h2.02v-7.46h1.83l4.08 7.46h2.74l-4.16-7.18v-.31zm2.05-1.11h-6.52v-.17h6.76l-.24.17zm.83-.69h-7.35v-.17h7.49l-.14.17zm.47-.69h-2.13l.22-.17h2.02l-.11.17zm.31-.7h-1.77l.14-.17h1.72l-.09.17zm.19-.69h-1.58l.08-.17h1.55l-.05.17zm.11-.7h-1.47l.03-.17h1.44v.17zm.06-.69h-1.39v-.17h1.39v.17zm-.03-.69h-1.39v-.17h1.39v.17zm-.08-.7h-1.33l-.08-.17h1.41v.17zm-.12-.69h-1.5l-.08-.17h1.53l.05.17zm-.25-.7h-1.55l-.19-.17h1.69l.05.17zm-.3-.69h-1.94l-.31-.17h2.13l.12.17zm-7.71-2.26h3.88l1.3.17h-5.18v-.17zm0 .7h6.24l.22.17h-6.46v-.17zm0 .69h7.07l.14.17h-7.21v-.17zm-.03.63h4.19c1.69 0 2.66 1.67 2.66 3.26 0 1.84-1.03 3.37-2.55 3.37h-4.3v-6.63zm.03 8.57v-.17h5.41l-.72.17h-4.69zm2.16.52h1.97v.17h-1.88l-.09-.17zm5.91 7.11h-2.02l-.08-.17h2.02l.08.17zm-.36-.69h-2.05l-.08-.17h2l.13.17zm-.42-.7h-2.02l-.08-.17h2l.1.17zm-.38-.69h-2.02l-.08-.17h1.97l.13.17zm-.42-.7h-2l-.08-.17h1.97l.11.17zm-.39-.69h-2l-.08-.17h1.94l.14.17zm-.41-.69h-1.94l-.08-.17h1.91l.11.17zm-.39-.7h-1.94l-.08-.17h1.88l.14.17zm-.42-.69h-1.89l-.08-.17h1.86l.11.17zm-.39-.7h-1.89l-.08-.17h1.83l.14.17zm-.22-4.3h-3.27v-4.68h3.16c.91 0 1.64 1.08 1.64 2.29s-.61 2.39-1.53 2.39zm120.51 1.39c0 3.5-1.89 6.28-4.82 6.28-2.97 0-4.82-2.78-4.82-6.28 0-3.5 1.86-6.28 4.82-6.28 2.93 0 4.82 2.78 4.82 6.28zm95.13-9.44v18.87h2.02v-14.68h.42l7.74 14.68h2.58v-18.87h-2v14.5h-.5l-7.62-14.5h-2.64zm.73.38h1.75l.11.17h-1.77l-.09-.17zm11.61 18.15h-2.02l-.08-.17h1.97l.13.17zm-.39-.62h-1.94l-.08-.17h1.89l.13.17zm-.44-.7h-1.89l-.08-.17h1.86l.11.17zm-.53-.87l.14.17h-1.86l-.08-.17h1.8zm-.27-.52h-1.8l-.08-.17h1.75l.13.17zm-.42-.69h-1.75l-.08-.17h1.72l.11.17zm-.42-.69h-1.69l-.08-.17h1.66l.11.17zm-.36-.7h-1.69l-.08-.17h1.66l.11.17zm-.36-.69h-1.72l-.08-.17h1.69l.11.17zm-.36-.7h-1.72l-.08-.17h1.69l.11.17zm-.38-.69h-1.69l-.08-.17h1.66l.11.17zm-.37-.69H583l-.08-.17h1.66l.11.17zm-.36-.7h-1.69l-.08-.17h1.66l.11.17zm-.36-.69h-1.72l-.08-.17h1.69l.11.17zm-.36-.69h-1.72l-.08-.17h1.69l.11.17zm-.36-.7h-1.72l-.08-.17h1.69l.11.17zm-.39-.69h-1.69l-.08-.17h1.66l.11.17zm-.36-.7h-1.69l-.08-.17h1.66l.11.17zm-.36-.69h-1.69l-.08-.17h1.66l.11.17zm-.36-.69h-1.72l-.08-.17h1.69l.11.17zm-.36-.7h-1.72l-.08-.17h1.69l.11.17zm-.39-.69h-1.69l-.08-.17h1.66l.11.17zm-.36-.7h-1.72l-.08-.17h1.69l.11.17zm-.36-.69h-1.72l-.08-.17h1.69l.11.17zm-.36-.69h-1.75l-.08-.17h1.72l.11.17zm-.36-.7h-1.75l-.08-.17h1.72l.11.17zm-161.21 6.8h-3.27v-4.68h3.16c.91 0 1.64 1.08 1.64 2.29s-.61 2.39-1.53 2.39zm72.98 10.83h2.02v-16.31h3.77v-2.57h-9.54v2.57h3.74v16.31zm-3.46-18.36h8.98v.17h-8.98v-.17zm0 .7h8.98v.17h-8.98v-.17zm0 .86v-.17h8.98v.17h-8.98zm-93.84-2.08h-2.02v18.87h2.02v-18.87zm-.27 10.2h-1.47v-.17h1.47v.17zm0-.69h-1.47v-.17h1.47v.17zm0-.69h-1.47v-.17h1.47v.17zm0-.7h-1.47v-.17h1.47v.17zm0-.69h-1.47v-.17h1.47v.17zm0-.7h-1.47v-.17h1.47v.17zm0-.69h-1.47v-.17h1.47v.17zm0-.69h-1.47v-.17h1.47v.17zm0-.7h-1.47v-.17h1.47v.17zm0-.69h-1.47v-.17h1.47v.17zm0-.7h-1.47v-.17h1.47v.17zm0-.69h-1.47v-.17h1.47v.17zm0-.69h-1.47v-.17h1.47v.17zm0-.7h-1.47v-.17h1.47v.17zm0-.69h-1.47v-.17h1.47v.17zm37.32 14.54l-.61 1.73h5.93l-.64-1.73h-4.68zm.3.41h4.02l.08.17h-4.16l.06-.17zm-.3.87l.06-.17h4.49l.06.17h-4.61zm110.41.38c-3.58 0-5.93-3.19-5.93-7.25 0-4.06 2.36-7.25 5.93-7.25 1.47 0 2.91.66 4.08 1.67l1.61-1.94c-1.44-1.7-3.3-2.6-5.68-2.6-4.63 0-7.98 4.48-7.98 10.13 0 5.66 3.35 10.13 7.98 10.13 5.35 0 7.9-4.34 7.9-10.1v-1.21h-7.1v2.46h4.82c-.03 2.84-1.72 5.96-5.63 5.96zm-7.54-9.4h1.55l-.06.17h-1.53l.04-.17zm-.08.69h1.52l-.06.17h-1.5l.04-.17zm-.06.7h1.5l-.03.17h-1.5l.03-.17zm-.02.69h1.5v.17h-1.5v-.17zm0 .69h1.5l.03.17h-1.5l-.03-.17zm.05.7h1.5l.06.17h-1.52l-.04-.17zm.08.69h1.53l.06.17h-1.53l-.06-.17zm.14.7h1.55l.06.17h-1.58l-.03-.17zm.17.69h1.61l.08.17h-1.66l-.03-.17zm.19.69h1.72l.11.17h-1.75l-.08-.17zm.28.7h1.83l.14.17h-1.89l-.08-.17zm.33.69h2l.14.17h-2.05l-.09-.17zm.42.7h2.22l.17.17h-2.3l-.09-.17zm.47.69h2.72l.28.17h-2.86l-.14-.17zm5.57 2.88c-.44 0-.92-.03-1.3-.1h2.58c-.22.06-.58.1-1.28.1zm3.16-.62h-5.99l-.36-.17h6.71l-.36.17zm1.2-.7h-8.32l-.19-.17h8.71l-.2.17zm.72-.69h-9.84l-.17-.17h4.02c.22.03.61.07.92.07.39 0 .64-.03.89-.07h4.35l-.17.17zm.63-.7h-3.02l.28-.17h2.88l-.14.17zm.45-.69h-2.36l.22-.17h2.25l-.11.17zm.3-.69h-1.97l.14-.17h1.94l-.11.17zm.28-.7h-1.77l.14-.17h1.72l-.09.17zm.25-.69h-1.69l.11-.17h1.66l-.08.17zm.16-.7h-1.58l.06-.17h1.58l-.06.17zm.14-.69h-1.5l.03-.17h1.53l-.06.17zm.11-.69h-1.52l.06-.17h1.5l-.04.17zm.09-.7h-1.53l.03-.17h1.5v.17zm-6.32-2.25h6.4v.17h-6.4v-.17zm0 .69h6.4v.17h-6.4v-.17zm0 .87v-.17h6.4v.17h-6.4zm29.25-10.24h-2.02v18.87h2.02v-18.87zm-.28 10.2h-1.47v-.17h1.47v.17zm0-.69h-1.47v-.17h1.47v.17zm0-.69h-1.47v-.17h1.47v.17zm0-.7h-1.47v-.17h1.47v.17zm0-.69h-1.47v-.17h1.47v.17zm0-.7h-1.47v-.17h1.47v.17zm0-.69h-1.47v-.17h1.47v.17zm0-.69h-1.47v-.17h1.47v.17zm0-.7h-1.47v-.17h1.47v.17zm0-.69h-1.47v-.17h1.47v.17zm0-.7h-1.47v-.17h1.47v.17zm0-.69h-1.47v-.17h1.47v.17zm0-.69h-1.47v-.17h1.47v.17zm0-.7h-1.47v-.17h1.47v.17zm0-.69h-1.47v-.17h1.47v.17zm-138.19 8.29l1.89 5.24h-3.85l1.91-5.24h.05zm126.16 8.02c-2 0-3.49-1.21-3.49-4.72v-12.07h-2v12.84c0 4.2 2.3 6.73 5.49 6.73 3.08 0 5.57-2.43 5.57-6.73v-12.84h-2.02v12.07c0 3.5-1.36 4.72-3.55 4.72zm-5.21-9.09h1.44v.17h-1.44v-.17zm0 .69h1.44v.17h-1.44v-.17zm0 .69h1.44v.17h-1.44v-.17zm0 .7h1.44v.17h-1.44v-.17zm0 .69h1.44v.17h-1.44v-.17zm0 .7h1.44v.17h-1.44v-.17zm0 .69h1.44v.17h-1.44v-.17zm0 .69h1.44l.03.17h-1.47v-.17zm0 .7h1.47l.06.17h-1.52v-.17zm.05.69H556l.06.17h-1.55l-.04-.17zm.11.69h1.61l.06.17h-1.64l-.03-.17zm.17.7h1.69l.14.17h-1.8l-.03-.17zm.25.69h1.91l.17.17h-2l-.08-.17zm.33.7h2.41l.33.17h-2.63l-.11-.17zm5.77 2.25h-2.97l-.5-.17h3.99l-.52.17zm1.41-.69h-5.77l-.19-.17h6.18l-.22.17zm.81-.7h-7.35l-.14-.17h7.65l-.16.17zm.52-.69h-2.58l.36-.17h2.33l-.11.17zm-.39-9.19h1.47v.17h-1.47v-.17zm0 .69h1.47v.17h-1.47v-.17zm0 .69h1.47v.17h-1.47v-.17zm0 .7h1.47v.17h-1.47v-.17zm0 .69h1.47v.17h-1.47v-.17zm0 .7h1.47v.17h-1.47v-.17zm0 .69h1.47v.17h-1.47v-.17zm-.02.69h1.5v.17h-1.5v-.17zm-.03.7h1.53l-.03.17h-1.52l.02-.17zm-.08.69h1.55l-.06.17h-1.55l.06-.17zm-.2.69h1.64l-.06.17h-1.64l.06-.17zm-.25.7h1.69l-.06.17h-1.75l.12-.17zm-.44.69h1.86l-.06.17h-1.94l.14-.17zm-190.85-16.03h-2.02v18.87h2.02v-18.87zm-.28 10.2h-1.47v-.17h1.47v.17zm0-.69h-1.47v-.17h1.47v.17zm0-.69h-1.47v-.17h1.47v.17zm0-.7h-1.47v-.17h1.47v.17zm0-.69h-1.47v-.17h1.47v.17zm0-.7h-1.47v-.17h1.47v.17zm0-.69h-1.47v-.17h1.47v.17zm0-.69h-1.47v-.17h1.47v.17zm0-.7h-1.47v-.17h1.47v.17zm0-.69h-1.47v-.17h1.47v.17zm0-.7h-1.47v-.17h1.47v.17zm0-.69h-1.47v-.17h1.47v.17zm0-.69h-1.47v-.17h1.47v.17zm0-.7h-1.47v-.17h1.47v.17zm0-.69h-1.47v-.17h1.47v.17zm82.02-.49h-2.02v18.87h2.02v-8.22h8.57v8.22h2v-18.87h-2v8.19h-8.57v-8.19zm-1.75.32h1.47v.17h-1.47v-.17zm0 .69h1.47v.17h-1.47v-.17zm0 .69h1.47v.17h-1.47v-.17zm0 .7h1.47v.17h-1.47v-.17zm0 .69h1.47v.17h-1.47v-.17zm0 .7h1.47v.17h-1.47v-.17zm0 .69h1.47v.17h-1.47v-.17zm0 .69h1.47v.17h-1.47v-.17zm0 .7h1.47v.17h-1.47v-.17zm0 .69h1.47v.17h-1.47v-.17zm0 .69h1.47v.17h-1.47v-.17zm0 .7h1.47v.17h-1.47v-.17zm12.04 2.25h-12.03v-.17h12.03v.17zm0-.69h-12.03v-.17h12.03v.17zm-1.47-9.19h1.47v.17h-1.47v-.17zm0 .69h1.47v.17h-1.47v-.17zm0 .69h1.47v.17h-1.47v-.17zm0 .7h1.47v.17h-1.47v-.17zm0 .69h1.47v.17h-1.47v-.17zm0 .7h1.47v.17h-1.47v-.17zm0 .69h1.47v.17h-1.47v-.17zm0 .69h1.47v.17h-1.47v-.17zm0 .7h1.47v.17h-1.47v-.17zm0 .69h1.47v.17h-1.47v-.17zm0 .69h1.47v.17h-1.47v-.17zm0 .7h1.47v.17h-1.47v-.17zm1.47.69v.17h-12.03v-.17h12.03zm147.98 6.39l-.61 1.73h5.93l-.64-1.73h-4.68zm.31.41h4.02l.08.17h-4.16l.06-.17zm-.31.87l.05-.17h4.49l.06.17h-4.6zm-95.19-16.31h-2.02v18.87h9.26v-2.43h-7.24v-16.44zm6.96 18.46h-8.62l.14-.17h8.48v.17zm0-.69h-8.04l.14-.17h7.9v.17zm0-.87v.17h-7.49l.17-.17h7.32zm-141.75-5.31l-3.91-11.59h-2.11l6.21 18.15 6.21-18.15h-2.11l-3.88 11.59h-.41zm-5.6-11.21h1.5l.06.17h-1.47l-.09-.17zm.23.7h1.5l.06.17h-1.47l-.09-.17zm.24.69h1.5l.06.17h-1.47l-.09-.17zm.23.7h1.5l.06.17h-1.47l-.09-.17zm.25.69h1.5l.06.17h-1.47l-.09-.17zm.25.69h1.47l.06.17h-1.44l-.09-.17zm.22.7h1.5l.06.17h-1.47l-.09-.17zm.25.69h1.47l.06.17h-1.44l-.09-.17zm.25.7h1.47l.06.17h-1.44l-.09-.17zm.22.69h1.47l.06.17h-1.44l-.09-.17zm.25.69h1.47l.06.17h-1.44l-.09-.17zm.22.7h1.47l.06.17h-1.44l-.09-.17zm.25.69h1.47l.06.17h-1.44l-.09-.17zm.22.7h1.47l.06.17h-1.44l-.09-.17zm.25.69h1.44l.06.17h-1.41l-.09-.17zm.25.69H381l.06.17h-1.39l-.08-.17zm.22.7h1.44l.06.17h-1.41l-.09-.17zm.25.69h1.41l.06.17h-1.39l-.08-.17zm.22.7h1.44l.06.17h-1.41l-.09-.17zm.25.69h1.41l.06.17h-1.39l-.08-.17zm1.31 3.61l-.06-.14h.11l-.05.14zm.19-.66h-.44l-.08-.17h.61l-.09.17zm.25-.7h-.94l-.08-.17h1.11l-.09.17zm.17-.69h-1.36l-.08-.17h1.39l.05.17zm-.23-.69h-1.36l-.08-.17h1.39l.05.17zm224.71 4.44h2.19l4.66-12.56h.39l4.6 12.56h2.25l-7.07-18.67-7.02 18.67zm3.27-3.96h-1.53l.08-.17h1.53l-.08.17zm.25-.69h-1.5l.06-.17h1.52l-.08.17zm.25-.7h-1.5l.08-.17h1.5l-.08.17zm.25-.69h-1.47l.06-.17h1.5l-.09.17zm.28-.69h-1.5l.08-.17h1.5l-.08.17zm.25-.7h-1.47l.06-.17h1.5l-.09.17zm.25-.69h-1.47l.06-.17h1.5l-.09.17zm.28-.7h-1.5l.08-.17h1.5l-.08.17zm.25-.69h-1.47l.06-.17h1.5l-.09.17zm.27-.69h-1.5l.08-.17h1.5l-.08.17zm.25-.7h-1.47l.06-.17h1.5l-.09.17zm.28-.69h-1.5l.08-.17h1.5l-.08.17zm.25-.69h-1.47l.06-.17h1.5l-.09.17zm5.88 8.32h-1.64l-.08-.17h1.66l.06.17zm-.25-.69h-1.61l-.08-.17h1.61l.08.17zm-.28-.7h-1.58l-.08-.17h1.61l.05.17zm-.25-.69h-1.58l-.08-.17h1.58l.08.17zm-.28-.69h-1.53l-.08-.17h1.55l.06.17zm-.25-.7h-1.53l-.08-.17h1.53l.08.17zm-.27-.69h-1.5l-.08-.17h1.52l.06.17zm-.25-.7h-1.5l-.08-.17h1.5l.08.17zm-.28-.69h-1.47l-.08-.17h1.5l.05.17zm-.25-.69h-1.47l-.08-.17h1.47l.08.17zm-.28-.7h-1.44l-.08-.17h1.47l.05.17zm-.25-.69h-1.44l-.08-.17h1.44l.08.17zm-.27-.69h-1.41l-.08-.17h1.44l.05.17zm-.25-.7h-3.69l.08-.17h3.52l.09.17zm-.28-.69h-3.13l.06-.17h3.02l.05.17zm-.25-.7h-2.63l.06-.17h2.5l.07.17zm-.28-.69h-2.11l.08-.17h1.97l.06.17zm-.25-.69h-1.58l.06-.17h1.44l.08.17zm-.27-.7h-1.05l.08-.17h.91l.06.17zm-.25-.69h-.53l.06-.17h.39l.08.17zm-.31-.63l.06-.14.06.14h-.12zm-268.45-8.59v34.22h284.12V198.4H345.44zm16.54 27.33l-4.24-7.77v7.77h-4.08v-20.82h6.96c3.58 0 5.91 2.71 5.91 6.63 0 3.64-1.47 5.69-3.94 6.45l4.49 7.74h-5.1zm10.62 0h-4.08v-20.82h4.08v20.82zm9.46.69h-.5l-7.35-21.51h4.24l3.35 10.03 3.35-10.03h4.24l-7.33 21.51zm13.03-.69h-4.08v-20.82h4.08v20.82zm13.97 0h-11.31v-20.82h11.01v4.51h-6.93v3.75h6.4v4.44h-6.4v3.75h7.24v4.37zm10.29 0l-4.24-7.77v7.77h-4.08v-20.82h6.96c3.58 0 5.91 2.71 5.91 6.63 0 3.64-1.47 5.69-3.94 6.45l4.49 7.74h-5.1zm18.25 0l-.83-2.15h-6.57l-.8 2.15h-4.38l8.1-21.51h.72l8.15 21.51h-4.39zm27.31 0h-4.05v-8.22h-6.52v8.22h-4.08v-20.82h4.08v8.19h6.52v-8.19h4.05v20.82zm11.78.69c-5.27 0-8.95-4.89-8.95-11.1s3.69-11.1 8.95-11.1c5.24 0 8.95 4.89 8.95 11.1.01 6.21-3.71 11.1-8.95 11.1zm21.49-17h-3.77v16.31h-4.08v-16.31h-3.74v-4.51h11.59v4.51zm13.2 16.31h-11.31v-20.82h11.01v4.51h-6.93v3.75h6.4v4.44h-6.4v3.75h7.24v4.37zm13.28 0h-11.31v-20.82h4.08v16.45h7.24v4.37zm25.79-10.58c0 6.14-2.88 11.28-8.93 11.28-5.27 0-9.01-4.89-9.01-11.1s3.74-11.1 9.01-11.1c3.08 0 5.21 1.42 6.96 3.64l-2.83 3.26c-1.14-1.28-2.55-2.08-4.13-2.08-2.97 0-4.88 2.78-4.88 6.28 0 3.85 2.19 6.28 4.96 6.28 2.91 0 4.32-2.01 4.44-4.02h-4.74v-4.41h9.15v1.97zm15.78 3.57c0 4.93-2.94 7.7-6.6 7.7-3.8 0-6.52-2.91-6.52-7.7v-13.81h4.05v13.04c0 2.78 1.05 3.75 2.47 3.75 1.55 0 2.52-.97 2.52-3.75v-13.04h4.08v13.81zm6.74 7.01h-4.08v-20.82h4.08v20.82zm17.46 0h-4.24l-6.49-12.35v12.35h-4.08v-20.82h4.3l6.46 12.35v-12.35h4.05v20.82zm13.98 0H593.1v-20.82h11.01v4.51h-6.93v3.75h6.4v4.44h-6.4v3.75h7.24v4.37zm13.67 0l-.83-2.15h-6.57l-.8 2.15h-4.38l8.1-21.51h.72l8.15 21.51h-4.39zm-191.63-.97h2.19l4.66-12.56h.39l4.6 12.56h2.25l-7.07-18.67-7.02 18.67zm3.27-3.96h-1.53l.08-.17h1.52l-.07.17zm.25-.69h-1.5l.06-.17h1.52l-.08.17zm.25-.7h-1.5l.08-.17h1.5l-.08.17zm.25-.69H429l.06-.17h1.5l-.09.17zm.28-.69h-1.5l.08-.17h1.5l-.08.17zm.25-.7h-1.47l.06-.17h1.5l-.09.17zm.25-.69h-1.47l.06-.17h1.5l-.09.17zm.27-.7h-1.5l.08-.17h1.5l-.08.17zm.25-.69h-1.47l.06-.17h1.5l-.09.17zm.28-.69h-1.5l.08-.17h1.5l-.08.17zm.25-.7h-1.47l.06-.17h1.5l-.09.17zm.28-.69h-1.5l.08-.17h1.5l-.08.17zm.25-.69h-1.47l.06-.17h1.5l-.09.17zm5.88 8.32h-1.64l-.08-.17h1.66l.06.17zm-.25-.69h-1.61l-.08-.17h1.61l.08.17zm-.28-.7h-1.58l-.08-.17h1.61l.05.17zm-.25-.69h-1.58l-.08-.17h1.58l.08.17zm-.28-.69h-1.53l-.08-.17h1.55l.06.17zm-.25-.7h-1.53l-.08-.17h1.53l.08.17zm-.28-.69h-1.5l-.08-.17h1.52l.06.17zm-.24-.7h-1.5l-.08-.17h1.5l.08.17zm-.28-.69h-1.47l-.08-.17h1.5l.05.17zm-.25-.69h-1.47l-.08-.17h1.47l.08.17zm-.28-.7h-1.44l-.08-.17h1.47l.05.17zm-.25-.69h-1.44l-.08-.17h1.44l.08.17zm-.28-.69h-1.41l-.08-.17h1.44l.05.17zm-.24-.7h-3.69l.08-.17h3.52l.09.17zm-.28-.69h-3.13l.06-.17h3.02l.05.17zm-.25-.7h-2.63l.06-.17h2.5l.07.17zm-.28-.69h-2.11l.08-.17h1.97l.06.17zm-.25-.69h-1.58l.06-.17h1.44l.08.17zm-.28-.7h-1.05l.08-.17h.91l.06.17zm-.25-.69h-.53l.06-.17h.39l.08.17zm-.3-.63l.06-.14.06.14h-.12zm-14.83 10.27c2.83-.42 4.3-2.19 4.3-5.52 0-3.57-2.11-5.86-4.88-5.86h-5.93v18.87h2.02v-7.46h1.83l4.08 7.46h2.74l-4.16-7.18v-.31zm2.05-1.11h-6.52v-.17h6.76l-.24.17zm.83-.69h-7.35v-.17h7.49l-.14.17zm.47-.69h-2.13l.22-.17h2.02l-.11.17zm.31-.7h-1.77l.14-.17h1.72l-.09.17zm.19-.69h-1.58l.08-.17h1.55l-.05.17zm.11-.7h-1.47l.03-.17h1.44v.17zm.06-.69h-1.39v-.17h1.39v.17zm-.03-.69h-1.39v-.17h1.39v.17zm-.09-.7h-1.33l-.08-.17h1.41v.17zm-.11-.69h-1.5l-.08-.17h1.52l.06.17zm-.25-.7h-1.55l-.19-.17h1.69l.05.17zm-.3-.69h-1.94l-.3-.17h2.13l.11.17zm-7.71-2.26h3.88l1.3.17h-5.18v-.17zm0 .7h6.24l.22.17h-6.46v-.17zm0 .69h7.07l.14.17h-7.21v-.17zm-.03.63h4.19c1.69 0 2.66 1.67 2.66 3.26 0 1.84-1.03 3.37-2.55 3.37h-4.3v-6.63zm.03 8.57v-.17h5.41l-.72.17h-4.69zm2.16.52h1.97v.17h-1.89l-.08-.17zm5.91 7.11h-2.02l-.08-.17h2.02l.08.17zm-.36-.69h-2.05l-.08-.17h2l.13.17zm-.42-.7h-2.02l-.08-.17h2l.1.17zm-.38-.69H419l-.08-.17h1.97l.13.17zm-.42-.7h-2l-.08-.17h1.97l.11.17zm-.39-.69h-2l-.08-.17h1.94l.14.17zm-.41-.69h-1.94l-.08-.17h1.91l.11.17zm-.39-.7h-1.94l-.08-.17h1.89l.13.17zm-.42-.69h-1.89l-.08-.17h1.86l.11.17zm-.39-.7h-1.88l-.08-.17h1.83l.13.17zm177.55-1.59h6.4v-2.5h-6.4v-5.69h6.93v-2.57h-8.95v18.87h9.26v-2.43h-7.24v-5.68zm6.12-.49h-6.13v-.17h6.13v.17zm0-.69h-6.13v-.17h6.13v.17zm0-.87v.17h-6.13v-.17h6.13zm.53-6.66h-7.04l-.14-.17h7.18v.17zm0-.69h-7.6l-.14-.17h7.73v.17zm0-.87v.17h-8.15l-.14-.17h8.29zm.31 17.97h-8.62l.14-.17h8.48v.17zm0-.69h-8.04l.14-.17h7.9v.17zm0-.87v.17h-7.49l.17-.17h7.32zm-99.99-6.14h6.4v-2.5h-6.4v-5.69h6.93v-2.57h-8.95v18.87h9.26v-2.43h-7.24v-5.68zm6.13-.49h-6.13v-.17h6.13v.17zm0-.69h-6.13v-.17h6.13v.17zm0-.87v.17h-6.13v-.17h6.13zm.52-6.66h-7.04l-.14-.17h7.18v.17zm0-.69h-7.6l-.14-.17h7.73v.17zm0-.87v.17h-8.15l-.14-.17h8.29zm.31 17.97h-8.62l.14-.17h8.48v.17zm0-.69h-8.04l.14-.17h7.9v.17zm0-.87v.17h-7.49l.17-.17h7.32zm-109.28-6.14h6.4v-2.5h-6.4v-5.69h6.93v-2.57h-8.95v18.87h9.26v-2.43h-7.24v-5.68zm6.13-.49h-6.13v-.17h6.13v.17zm0-.69h-6.13v-.17h6.13v.17zm0-.87v.17h-6.13v-.17h6.13zm.53-6.66h-7.04l-.14-.17h7.18v.17zm0-.69h-7.6l-.14-.17h7.73v.17zm0-.87v.17h-8.15l-.14-.17h8.29zm.3 17.97h-8.62l.14-.17h8.48v.17zm0-.69h-8.04l.14-.17h7.9v.17zm0-.87v.17h-7.49l.17-.17h7.32zm68.93-17.59c-4.63 0-7.93 4.48-7.93 10.13 0 5.66 3.3 10.06 7.93 10.06 4.6 0 7.93-4.41 7.93-10.06s-3.32-10.13-7.93-10.13zm0 .38l1.47.14h-2.83l1.36-.14zm-2.82.66h5.66l.36.17h-6.38l.36-.17zm-1.14.69h7.93l.17.17h-8.32l.22-.17zm-1.44 1.39h2.91l-.36.17h-2.69l.14-.17zm-.53.7h2.33l-.19.17h-2.25l.11-.17zm-.39.69h2.05l-.17.17h-2l.12-.17zm-.36.69h1.89l-.11.17h-1.86l.08-.17zm-.28.7h1.75l-.11.17h-1.69l.05-.17zm-.22.69h1.66l-.08.17h-1.61l.03-.17zm-.16.7h1.58l-.06.17h-1.55l.03-.17zm-.23 1.38h1.52l-.06.17h-1.5l.04-.17zm-.05.7h1.5l-.03.17h-1.5l.03-.17zm-.03.69h1.5v.17h-1.5v-.17zm0 .69h1.5l.03.17h-1.5l-.03-.17zm.06.7h1.5l.06.17h-1.52l-.04-.17zm.14.87l-.06-.17h1.52l.06.17h-1.52zm1.46-4.17h-1.52l.03-.17h1.55l-.06.17zm5.99 9.34c-3.58 0-5.88-3.3-5.88-7.36 0-4.06 2.3-7.25 5.88-7.25 3.55 0 5.88 3.19 5.88 7.25 0 4.06-2.33 7.36-5.88 7.36zm7.46-5.17h-1.55l.06-.17h1.53l-.04.17zm.08-.7h-1.5l.03-.17h1.52l-.05.17zm.09-.69h-1.52l.03-.17h1.5v.17zm.03-.7h-1.5v-.17h1.5v.17zm-.03-.69h-1.5v-.17h1.5v.17zm-.03-.69h-1.52l-.03-.17h1.53l.02.17zm-.08-.7h-1.55l-.06-.17h1.55l.06.17zm-.14-.69h-1.55l-.08-.17h1.58l.05.17zm-.2-.7h-1.61l-.08-.17h1.64l.05.17zm-.22-.69h-1.69l-.08-.17h1.72l.05.17zm-.25-.69h-1.8l-.14-.17h1.86l.08.17zm-.3-.7h-1.97l-.17-.17h2.02l.12.17zm-.39-.69h-2.22l-.19-.17h2.27l.14.17zm-.47-.69h-2.69l-.3-.17h2.86l-.03-.03.16.2zm-.61-.7h-3.83l-1.11-.1-1.03.1h-3.96l.22-.17h9.56l.15.17zm132.32 6.87l1.89 5.24h-3.85l1.91-5.24h.05z" opacity=".68"/>
</svg>
