<svg xmlns="http://www.w3.org/2000/svg" xmlns:xlink="http://www.w3.org/1999/xlink" width="250" height="37" id="Layer_1" viewBox="0 0 289.12 40.72">
  <style>
    .st1{fill:#c6dd7f}.st2{fill:#e9ddb7}.st3{fill:#a6d0e4}
  </style>
  <pattern id="Alyssa" width="144.13" height="138.36" x="-195.92" y="-49.22" overflow="visible" patternUnits="userSpaceOnUse" viewBox="99.96 -216.83 144.13 138.36">
    <path fill="none" d="M99.96-216.83h144.13v138.36H99.96z"/>
    <path d="M311.04-58.31c-11.76-1.38-19.37.35-22.65 3.11-3.02 2.54-4.96 5.41-2.25 11.93 2.94 7.09 1.53 14.73-5.54 15.91-6.22 1.04-10.89-4.84-11.24-12.28-.24-5.18-1.9-8.3-5.53-7.61-3.63.69-4.63 5.9-3.63 11.76 1.38 8.13 5.54 11.76 6.23 20.23.49 6.05-2.94 13.66-12.45 15.04-9.3 1.35-15.91-4.32-16.6-10.55-.73-6.59 3.63-10.89 3.11-17.64s-4.01-10.17-5.88-17.29c-2.77-10.55 1.21-19.02 7.78-22.65 14.75-8.15 22.83 3.64 35.97 1.56 10.9-1.73 23.35-18.16 33.03-19.54 8.23-1.17 13.83 4.67 15.04 14.01 1.21 9.34-4.74 15.27-15.39 14.01zm-42.2.52c0-2.29-1.86-4.15-4.15-4.15s-4.15 1.86-4.15 4.15 1.86 4.15 4.15 4.15 4.15-1.86 4.15-4.15zm49.46-15.39c0-.96-.78-1.73-1.73-1.73s-1.73.77-1.73 1.73.77 1.73 1.73 1.73 1.73-.77 1.73-1.73z" class="st1"/>
    <path d="M148.8-77.49c0 7.17 4.59 13.81-1 16.33-8.5 3.83-28-14.33-28-36.17 0-12 8.67-19 17.83-19 12.33 0 18 8.17 18 17.5s-6.83 13.14-6.83 21.34zm-5.41-5.37c0-1.15-.93-2.08-2.07-2.08-1.15 0-2.08.93-2.08 2.08s.93 2.08 2.08 2.08c1.14-.01 2.07-.94 2.07-2.08z" class="st2"/>
    <path d="M223.49-54c-7.87 2.74-19.44-15.3-17.67-27.02 1.24-8.23 7.12-13.19 13.09-14.22 7.53-1.3 12.9 2.6 13.3 7.24.55 6.31-3.63 7.52-4.22 14.96-.56 7.14 3.69 16.19-4.5 19.04zm-3.78-27.51c0-1.43-1.16-2.59-2.59-2.59s-2.59 1.16-2.59 2.59 1.16 2.59 2.59 2.59c1.42.01 2.59-1.16 2.59-2.59z" class="st3"/>
    <path d="M119.35-76.47c0 1.43-1.16 2.59-2.59 2.59s-2.59-1.16-2.59-2.59 1.16-2.59 2.59-2.59 2.59 1.16 2.59 2.59z" class="st2"/>
    <path d="M184.57-84.19c.74 8.1 12.67 7.02 17.9 14.21 10.52 14.47-1.22 46.37-21.63 46.37-11.74 0-24.22-9.72-24.22-29.22 0-15.83 10.17-21.5 8.25-42.17-1.01-10.83-12.5-20.34-12.5-34.75 0-5.92 3.59-13.45 11.55-13.45 7.05 0 10.82 5.95 10.82 12.9 0 6.8-5.38 15.74 1.38 19.05 5.24 2.57 13.21-4.77 19.5-6.75 5.19-1.64 12.39.22 14.75 8.5 2.53 8.88-3.25 14.75-11.59 16.69-6.31 1.49-14.8 2.18-14.21 8.62zm-15.98-30.56c0-1.82-1.47-3.29-3.29-3.29-1.81 0-3.29 1.47-3.29 3.29 0 1.81 1.47 3.29 3.29 3.29s3.29-1.47 3.29-3.29zm25.98 9.7c1.29 0 2.33-1.04 2.33-2.33s-1.04-2.33-2.33-2.33-2.33 1.04-2.33 2.33c0 1.28 1.05 2.33 2.33 2.33zm-19.98 59.67c0-1.82-1.47-3.29-3.29-3.29-1.81 0-3.29 1.47-3.29 3.29 0 1.81 1.47 3.29 3.29 3.29 1.82-.01 3.29-1.48 3.29-3.29z" class="st3"/>
    <path d="M166.91-58.31c-11.76-1.38-19.37.35-22.65 3.11-3.02 2.54-4.96 5.41-2.25 11.93 2.94 7.09 1.53 14.73-5.54 15.91-6.22 1.04-10.89-4.84-11.24-12.28-.24-5.18-1.9-8.3-5.53-7.61-3.63.69-4.63 5.9-3.63 11.76 1.38 8.13 5.54 11.76 6.23 20.23.49 6.05-2.94 13.66-12.45 15.04-9.3 1.35-15.91-4.32-16.6-10.55-.73-6.59 3.63-10.89 3.11-17.64s-4.01-10.17-5.88-17.29c-2.77-10.55 1.21-19.02 7.78-22.65 14.75-8.15 22.83 3.64 35.97 1.56 10.9-1.73 23.35-18.16 33.03-19.54 8.23-1.17 13.83 4.67 15.04 14.01 1.21 9.34-4.74 15.27-15.39 14.01zm-42.2.52c0-2.29-1.86-4.15-4.15-4.15s-4.15 1.86-4.15 4.15 1.86 4.15 4.15 4.15 4.15-1.86 4.15-4.15zm49.46-15.39c0-.96-.78-1.73-1.73-1.73-.96 0-1.73.77-1.73 1.73s.77 1.73 1.73 1.73 1.73-.77 1.73-1.73z" class="st1"/>
    <g>
      <path d="M290.28-104.84c0 6.23-4.15 10.72-8.65 11.59-4.5.87-8.32-1.28-12.97 1.21-4.84 2.59-7.09 11.07-16.78 11.07-7.96 0-15.22-7.96-15.22-18.85 0-20.23 13.14-29.23 25.59-29.23 16.62 0 28.03 12.62 28.03 24.21zm-19.71-14.35c0-2.1-1.7-3.8-3.8-3.8-2.1 0-3.8 1.7-3.8 3.8 0 2.1 1.7 3.8 3.8 3.8 2.1 0 3.8-1.7 3.8-3.8z" class="st3"/>
      <path d="M311.04-196.67c-11.76-1.38-19.37.35-22.65 3.11-3.02 2.54-4.96 5.41-2.25 11.93 2.94 7.09 1.53 14.73-5.54 15.91-6.22 1.04-10.89-4.84-11.24-12.28-.24-5.18-1.9-8.3-5.53-7.61-3.63.69-4.63 5.9-3.63 11.76 1.38 8.13 5.54 11.76 6.23 20.23.49 6.05-2.94 13.66-12.45 15.04-9.3 1.35-15.91-4.32-16.6-10.55-.73-6.59 3.63-10.89 3.11-17.64s-4.01-10.17-5.88-17.29c-2.77-10.55 1.21-19.02 7.78-22.65 14.75-8.15 22.83 3.64 35.97 1.56 10.9-1.73 23.35-18.16 33.03-19.54 8.23-1.17 13.83 4.67 15.04 14.01 1.21 9.34-4.74 15.26-15.39 14.01zm-42.2.52c0-2.29-1.86-4.15-4.15-4.15s-4.15 1.86-4.15 4.15 1.86 4.15 4.15 4.15 4.15-1.86 4.15-4.15zm49.46-15.39c0-.96-.78-1.73-1.73-1.73s-1.73.77-1.73 1.73.77 1.73 1.73 1.73 1.73-.78 1.73-1.73z" class="st1"/>
    </g>
    <g>
      <path d="M131.8-133.19c-13.96 1.99-21.17-13.33-17.67-20.33 3.67-7.33 12.12-4.17 19.5-4.17 9.67 0 16.37-7.57 20.42-2.25 4.25 5.58-5.01 24.29-22.25 26.75zm.52-17.48c0-1.24-1.01-2.25-2.25-2.25s-2.25 1.01-2.25 2.25 1.01 2.25 2.25 2.25 2.25-1.01 2.25-2.25z" class="st3"/>
      <path d="M148.8-215.86c0 7.17 4.59 13.81-1 16.33-8.5 3.83-28-14.33-28-36.17 0-12 8.67-19 17.83-19 12.33 0 18 8.17 18 17.5 0 9.34-6.83 13.15-6.83 21.34zm-5.41-5.37c0-1.15-.93-2.08-2.07-2.08-1.15 0-2.08.93-2.08 2.08s.93 2.08 2.08 2.08c1.14 0 2.07-.93 2.07-2.08z" class="st2"/>
      <path d="M146.15-104.84c0 6.23-4.15 10.72-8.65 11.59-4.5.87-8.32-1.28-12.97 1.21-4.84 2.59-7.09 11.07-16.77 11.07-7.96 0-15.22-7.96-15.22-18.85 0-20.23 13.14-29.23 25.59-29.23 16.61 0 28.02 12.62 28.02 24.21zm-19.71-14.35c0-2.1-1.7-3.8-3.8-3.8-2.1 0-3.8 1.7-3.8 3.8 0 2.1 1.7 3.8 3.8 3.8 2.1 0 3.8-1.7 3.8-3.8z" class="st3"/>
      <path d="M145.46-128.53c0 1.34-1.08 2.42-2.42 2.42-1.34 0-2.42-1.08-2.42-2.42 0-1.34 1.08-2.42 2.42-2.42 1.34 0 2.42 1.08 2.42 2.42z" class="st1"/>
      <path d="M229.16-147.04c-3.19 4.68 1.04 10.72-1.38 15.22s-6.74 5.02-9.86 2.6c-3.63-2.83-3.41-6.64-8.3-8.82-5.53-2.46-17.98 2.25-19.71-7.26-.88-4.81 2.38-8.57 7.26-9.68 6.05-1.38 9.35-.18 15.39-3.11 6.05-2.94 11.24-8.99 22.14-12.11 10.41-2.97 16.07 1.56 16.6 5.88 1.04 8.46-17.13 9.94-22.14 17.28zm-2.25-7.43c0-1.24-1.01-2.25-2.25-2.25s-2.25 1.01-2.25 2.25 1.01 2.25 2.25 2.25c1.25-.01 2.25-1.01 2.25-2.25z" class="st3"/>
      <path d="M256.13-107.86c0 17.17-14.5 25.5-27 22.83-10.26-2.19-12.83-17.33-16.67-26.17-3.71-8.56-8.83-22.5-20.17-22.5-11.2 0-12.83 14.5-23.67 14.5-11 0-24.5-15.67-24.5-39.67 0-14.67 9.8-31.46 20.83-30.67 11.67.83 4.5 19.67 15.33 19.67 9.5 0 7.86-16.26 9.17-23.33 1.67-9 6.83-14.17 18.5-13.17 14.44 1.24 22.33 13.5 18.87 23.34-4.03 11.45-23.87 17.32-21.54 30.49 1.35 7.59 13 12 26 16.17 14.54 4.67 24.85 11.35 24.85 28.51zm-44.95-75.84c0 1.82 1.47 3.29 3.29 3.29 1.81 0 3.29-1.47 3.29-3.29s-1.47-3.29-3.29-3.29-3.29 1.47-3.29 3.29zm-46.7 24.9c0-.96-.77-1.73-1.73-1.73s-1.73.78-1.73 1.73c0 .96.78 1.73 1.73 1.73.96 0 1.73-.77 1.73-1.73zm17.47 10.72c0-2.1-1.7-3.8-3.8-3.8-2.1 0-3.8 1.7-3.8 3.8 0 2.1 1.71 3.8 3.8 3.8 2.1.01 3.8-1.69 3.8-3.8zm19.89-15.56c0-.86-.7-1.56-1.56-1.56-.86 0-1.56.7-1.56 1.56 0 .86.7 1.56 1.56 1.56.86 0 1.56-.7 1.56-1.56zm29.64 54.7c0-1.75-1.42-3.17-3.17-3.17s-3.17 1.42-3.17 3.17 1.42 3.17 3.17 3.17 3.17-1.42 3.17-3.17z" class="st2"/>
      <path d="M223.49-192.36c-7.87 2.74-19.44-15.3-17.67-27.02 1.24-8.23 7.12-13.19 13.09-14.22 7.53-1.3 12.9 2.6 13.3 7.24.55 6.31-3.63 7.52-4.22 14.96-.56 7.14 3.69 16.19-4.5 19.04zm-3.78-27.51c0-1.43-1.16-2.59-2.59-2.59s-2.59 1.16-2.59 2.59 1.16 2.59 2.59 2.59c1.42 0 2.59-1.16 2.59-2.59z" class="st3"/>
      <path d="M119.35-214.83c0 1.43-1.16 2.59-2.59 2.59s-2.59-1.16-2.59-2.59 1.16-2.59 2.59-2.59 2.59 1.16 2.59 2.59zM253.35-128.09c0-8.41-5.08-15.23-11.34-15.23s-11.34 6.82-11.34 15.23 5.08 12.44 11.34 12.44 11.34-4.03 11.34-12.44z" class="st2"/>
      <path d="M184.57-222.55c.74 8.1 12.67 7.02 17.9 14.21 10.52 14.47-1.22 46.37-21.63 46.37-11.74 0-24.22-9.72-24.22-29.22 0-15.83 10.17-21.5 8.25-42.17-1.01-10.83-12.5-20.34-12.5-34.75 0-5.92 3.59-13.45 11.55-13.45 7.05 0 10.82 5.95 10.82 12.9 0 6.8-5.38 15.74 1.38 19.05 5.24 2.57 13.21-4.77 19.5-6.75 5.19-1.64 12.39.22 14.75 8.5 2.53 8.88-3.25 14.75-11.59 16.69-6.31 1.48-14.8 2.18-14.21 8.62zm-15.98-30.56c0-1.82-1.47-3.29-3.29-3.29-1.81 0-3.29 1.47-3.29 3.29 0 1.81 1.47 3.29 3.29 3.29s3.29-1.48 3.29-3.29zm25.98 9.7c1.29 0 2.33-1.04 2.33-2.33s-1.04-2.33-2.33-2.33-2.33 1.04-2.33 2.33c0 1.28 1.05 2.33 2.33 2.33zm-19.98 59.67c0-1.82-1.47-3.29-3.29-3.29-1.81 0-3.29 1.47-3.29 3.29 0 1.81 1.47 3.29 3.29 3.29 1.82-.01 3.29-1.48 3.29-3.29z" class="st3"/>
      <path d="M166.91-196.67c-11.76-1.38-19.37.35-22.65 3.11-3.02 2.54-4.96 5.41-2.25 11.93 2.94 7.09 1.53 14.73-5.54 15.91-6.22 1.04-10.89-4.84-11.24-12.28-.24-5.18-1.9-8.3-5.53-7.61-3.63.69-4.63 5.9-3.63 11.76 1.38 8.13 5.54 11.76 6.23 20.23.49 6.05-2.94 13.66-12.45 15.04-9.3 1.35-15.91-4.32-16.6-10.55-.73-6.59 3.63-10.89 3.11-17.64s-4.01-10.17-5.88-17.29c-2.77-10.55 1.21-19.02 7.78-22.65 14.75-8.15 22.83 3.64 35.97 1.56 10.9-1.73 23.35-18.16 33.03-19.54 8.23-1.17 13.83 4.67 15.04 14.01 1.21 9.34-4.74 15.26-15.39 14.01zm-42.2.52c0-2.29-1.86-4.15-4.15-4.15s-4.15 1.86-4.15 4.15 1.86 4.15 4.15 4.15 4.15-1.86 4.15-4.15zm49.46-15.39c0-.96-.78-1.73-1.73-1.73-.96 0-1.73.77-1.73 1.73s.77 1.73 1.73 1.73 1.73-.78 1.73-1.73zM230.2-174.36c0 .76-.62 1.38-1.38 1.38-.76 0-1.38-.62-1.38-1.38 0-.76.62-1.38 1.38-1.38.76 0 1.38.62 1.38 1.38z" class="st1"/>
      <path d="M235.73-212.75c0 1.24-1.01 2.25-2.25 2.25s-2.25-1.01-2.25-2.25 1.01-2.25 2.25-2.25 2.25 1.01 2.25 2.25z" class="st2"/>
      <path d="M152.21-189.58c0 .67-.54 1.21-1.21 1.21s-1.21-.54-1.21-1.21.54-1.21 1.21-1.21 1.21.54 1.21 1.21zM148.57-121.1c0 .76-.62 1.38-1.38 1.38s-1.38-.62-1.38-1.38c0-.76.62-1.38 1.38-1.38s1.38.62 1.38 1.38z" class="st3"/>
      <path d="M233.14-143.06c0 .67-.54 1.21-1.21 1.21-.67 0-1.21-.54-1.21-1.21 0-.67.54-1.21 1.21-1.21.67 0 1.21.54 1.21 1.21z" class="st2"/>
      <path d="M195.85-125.13c0 1.88-1.53 3.41-3.41 3.41-1.88 0-3.41-1.53-3.41-3.41 0-1.88 1.53-3.41 3.41-3.41 1.88 0 3.41 1.52 3.41 3.41z" class="st1"/>
      <path d="M200.83-85.28c0 1.16-.94 2.1-2.1 2.1s-2.1-.94-2.1-2.1.94-2.1 2.1-2.1 2.1.94 2.1 2.1zM162.03-91.58c0 .87-.7 1.57-1.57 1.57-.87 0-1.57-.7-1.57-1.57 0-.87.71-1.57 1.57-1.57.87 0 1.57.71 1.57 1.57z" class="st2"/>
      <circle cx="233.08" cy="-205.62" r="2.62" class="st1"/>
      <circle cx="223.12" cy="-170.75" r="2.36" class="st3"/>
      <path d="M127.69-164.2c0 1.45-1.17 2.62-2.62 2.62-1.45 0-2.62-1.17-2.62-2.62 0-1.45 1.17-2.62 2.62-2.62 1.44 0 2.62 1.17 2.62 2.62z" class="st2"/>
      <path d="M122.7-171.28c0 .72-.59 1.31-1.31 1.31-.72 0-1.31-.59-1.31-1.31s.59-1.31 1.31-1.31c.73 0 1.31.59 1.31 1.31z" class="st3"/>
      <path d="M186.94-119.37c0 .87-.71 1.57-1.57 1.57-.87 0-1.57-.7-1.57-1.57 0-.87.7-1.57 1.57-1.57.86 0 1.57.7 1.57 1.57z" class="st2"/>
    </g>
    <g>
      <path d="M85.03-147.04c-3.19 4.68 1.04 10.72-1.38 15.22s-6.74 5.02-9.86 2.6c-3.63-2.83-3.41-6.64-8.3-8.82-5.53-2.46-17.98 2.25-19.71-7.26-.88-4.81 2.38-8.57 7.26-9.68 6.05-1.38 9.35-.18 15.39-3.11 6.05-2.94 11.24-8.99 22.14-12.11 10.41-2.97 16.07 1.56 16.6 5.88 1.04 8.46-17.13 9.94-22.14 17.28zm-2.24-7.43c0-1.24-1.01-2.25-2.25-2.25s-2.25 1.01-2.25 2.25 1.01 2.25 2.25 2.25c1.24-.01 2.25-1.01 2.25-2.25z" class="st3"/>
      <path d="M112-107.86c0 17.17-14.5 25.5-27 22.83-10.26-2.19-12.83-17.33-16.67-26.17-3.71-8.56-8.83-22.5-20.17-22.5-11.2 0-12.83 14.5-23.67 14.5-11 0-24.5-15.67-24.5-39.67 0-14.67 9.8-31.46 20.83-30.67 11.67.83 4.5 19.67 15.33 19.67 9.5 0 7.86-16.26 9.17-23.33 1.67-9 6.83-14.17 18.5-13.17 14.44 1.24 22.33 13.5 18.87 23.34-4.03 11.45-23.87 17.32-21.54 30.49 1.35 7.59 13 12 26 16.17C101.7-131.7 112-125.02 112-107.86zM67.05-183.7c0 1.82 1.47 3.29 3.29 3.29 1.81 0 3.29-1.47 3.29-3.29s-1.47-3.29-3.29-3.29-3.29 1.47-3.29 3.29zm-46.69 24.9c0-.96-.77-1.73-1.73-1.73s-1.73.78-1.73 1.73c0 .96.78 1.73 1.73 1.73s1.73-.77 1.73-1.73zm17.46 10.72c0-2.1-1.7-3.8-3.8-3.8-2.1 0-3.8 1.7-3.8 3.8 0 2.1 1.71 3.8 3.8 3.8 2.1.01 3.8-1.69 3.8-3.8zm19.89-15.56c0-.86-.7-1.56-1.56-1.56-.86 0-1.56.7-1.56 1.56 0 .86.7 1.56 1.56 1.56.86 0 1.56-.7 1.56-1.56zm29.64 54.7c0-1.75-1.42-3.17-3.17-3.17s-3.17 1.42-3.17 3.17 1.42 3.17 3.17 3.17 3.17-1.42 3.17-3.17z" class="st2"/>
      <path d="M109.22-128.09c0-8.41-5.08-15.23-11.34-15.23s-11.34 6.82-11.34 15.23 5.08 12.44 11.34 12.44 11.34-4.03 11.34-12.44z" class="st2"/>
    </g>
  </pattern>
  <pattern id="SVGID_1_" patternTransform="translate(0 24)" xlink:href="#Alyssa"/>
  <path fill="url(#SVGID_1_)" stroke="#000" stroke-miterlimit="10" stroke-width=".546" d="M16.29 22.41c2.87-.49 4.36-2.57 4.36-6.48 0-4.2-2.14-6.88-4.96-6.88H9.67v22.16h2.06v-8.76h1.86l4.14 8.76h2.79l-4.22-8.43v-.37zm2.08-1.3h-6.62v-.2h6.87l-.25.2zm.84-.82h-7.46v-.2h7.6l-.14.2zm.48-.81h-2.17l.22-.2h2.06l-.11.2zm.31-.82h-1.8l.14-.2h1.75l-.09.2zm.2-.81h-1.6l.08-.2h1.58l-.06.2zm.11-.81h-1.49l.03-.2h1.46v.2zm.06-.82h-1.41v-.2h1.41v.2zm-.03-.81h-1.41v-.2h1.41v.2zm-.08-.82h-1.35l-.08-.2h1.44v.2zm-.12-.81h-1.52l-.08-.2h1.55l.05.2zm-.25-.82h-1.58l-.2-.2h1.72l.06.2zm-.31-.81h-1.97l-.31-.2h2.17l.11.2zM11.75 9.5h3.94l1.32.2h-5.27v-.2zm0 .81h6.34l.23.2h-6.56v-.2zm0 .82h7.18l.14.2h-7.32v-.2zm-.03.73h4.25c1.72 0 2.7 1.95 2.7 3.83 0 2.16-1.04 3.95-2.59 3.95h-4.36v-7.78zm.03 10.06v-.2h5.49l-.73.2h-4.76zm2.2.61h2v.2h-1.91l-.09-.2zm6 8.35h-2.06l-.08-.2h2.06l.08.2zm-.37-.81H17.5l-.08-.2h2.03l.13.2zm-.42-.82H17.1l-.08-.2h2.03l.11.2zm-.4-.81H16.7l-.08-.2h2l.14.2zm-.42-.82h-2.03l-.08-.2h2l.11.2zm-.39-.81h-2.03l-.08-.2h1.97l.14.2zm-.42-.81h-1.97l-.08-.2h1.94l.11.2zm-.4-.82h-1.97l-.08-.2h1.91l.14.2zm-.42-.81h-1.92l-.08-.2h1.89l.11.2zm-.4-.82H14.4l-.08-.2h1.86l.13.2zm-.22-5.05h-3.32V13h3.21c.93 0 1.66 1.26 1.66 2.69s-.62 2.81-1.55 2.81zm122.4 1.63c0 4.11-1.92 7.37-4.9 7.37-3.01 0-4.9-3.26-4.9-7.37s1.89-7.37 4.9-7.37c2.98 0 4.9 3.26 4.9 7.37zm96.62-11.08v22.16h2.06V13.98h.42l7.86 17.23h2.62V9.05h-2.03v17.02h-.51l-7.74-17.02h-2.68zm.74.45h1.77l.11.2h-1.8l-.08-.2zm11.8 21.3h-2.06l-.08-.2h2l.14.2zm-.4-.73h-1.97l-.08-.2h1.92l.13.2zm-.45-.82h-1.92l-.08-.2h1.89l.11.2zm-.53-1.01l.14.2h-1.89l-.08-.2h1.83zm-.29-.62h-1.83l-.08-.2h1.77l.14.2zm-.42-.81h-1.77l-.08-.2h1.75l.1.2zm-.42-.81h-1.72l-.08-.2h1.69l.11.2zm-.37-.82h-1.72l-.08-.2h1.69l.11.2zm-.36-.81h-1.75l-.08-.2h1.72l.11.2zm-.37-.82h-1.75l-.08-.2h1.72l.11.2zm-.39-.81h-1.72l-.08-.2h1.69l.11.2zm-.37-.82h-1.72l-.08-.2h1.69l.11.2zm-.36-.81h-1.72l-.08-.2h1.69l.11.2zm-.37-.82h-1.75l-.08-.2h1.72l.11.2zm-.37-.81h-1.75l-.08-.2h1.72l.11.2zm-.36-.82h-1.75l-.08-.2h1.72l.11.2zm-.4-.81h-1.72l-.08-.2h1.69l.11.2zm-.36-.81h-1.72l-.08-.2h1.69l.11.2zm-.37-.82h-1.72l-.08-.2h1.69l.11.2zm-.37-.81h-1.75l-.08-.2h1.72l.11.2zm-.36-.82h-1.75l-.08-.2h1.72l.11.2zm-.4-.81h-1.72l-.08-.2h1.69l.11.2zm-.36-.82h-1.75l-.08-.2h1.72l.11.2zm-.37-.81h-1.75l-.08-.2h1.72l.11.2zm-.36-.82h-1.77l-.08-.2h1.75l.1.2zm-.37-.81h-1.77l-.08-.2H238l.1.2zM74.36 18.5h-3.32V13h3.21c.93 0 1.66 1.26 1.66 2.69s-.62 2.81-1.55 2.81zm74.13 12.71h2.06V12.07h3.83V9.05h-9.69v3.01h3.8v19.15zm-3.52-21.55h9.12v.2h-9.12v-.2zm0 .82h9.12v.2h-9.12v-.2zm0 1.02v-.2h9.12v.2h-9.12zM49.66 9.05H47.6v22.16h2.06V9.05zm-.28 11.98h-1.49v-.2h1.49v.2zm0-.82h-1.49v-.2h1.49v.2zm0-.81h-1.49v-.2h1.49v.2zm0-.82h-1.49v-.2h1.49v.2zm0-.81h-1.49v-.2h1.49v.2zm0-.82h-1.49v-.2h1.49v.2zm0-.81h-1.49v-.2h1.49v.2zm0-.82h-1.49v-.2h1.49v.2zm0-.81h-1.49v-.2h1.49v.2zm0-.81h-1.49v-.2h1.49v.2zm0-.82h-1.49v-.2h1.49v.2zm0-.81h-1.49v-.2h1.49v.2zm0-.82h-1.49v-.2h1.49v.2zm0-.81h-1.49v-.2h1.49v.2zm0-.82h-1.49v-.2h1.49v.2zm37.91 17.07l-.62 2.04h6.03l-.65-2.04h-4.76zm.31.49h4.08l.08.2h-4.22l.06-.2zm-.31 1.01l.06-.2h4.56l.06.2h-4.68zm112.14.45c-3.63 0-6.03-3.75-6.03-8.51s2.39-8.51 6.03-8.51c1.49 0 2.96.77 4.14 1.95l1.63-2.28c-1.46-2-3.35-3.05-5.77-3.05-4.7 0-8.11 5.25-8.11 11.89 0 6.64 3.41 11.89 8.11 11.89 5.43 0 8.03-5.09 8.03-11.85v-1.43h-7.21v2.89h4.9c-.03 3.35-1.75 7.01-5.72 7.01zm-7.66-11.03h1.58l-.06.2h-1.55l.03-.2zm-.08.81h1.55l-.06.2h-1.52l.03-.2zm-.06.81h1.52l-.03.2h-1.52l.03-.2zm-.03.82h1.52v.2h-1.52v-.2zm0 .81h1.52l.03.2h-1.52l-.03-.2zm.06.82h1.52l.06.2h-1.55l-.03-.2zm.08.81h1.55l.06.2h-1.55l-.06-.2zm.14.82h1.58l.06.2h-1.6l-.04-.2zm.17.81h1.63l.08.2h-1.69l-.02-.2zm.2.82H194l.11.2h-1.77l-.09-.2zm.28.81h1.86l.14.2h-1.91l-.09-.2zm.34.82h2.03l.14.2h-2.08l-.09-.2zm.42.81h2.25l.17.2h-2.34l-.08-.2zm.48.81h2.76l.28.2h-2.9l-.14-.2zm5.66 3.39c-.45 0-.93-.04-1.32-.12h2.62c-.23.07-.59.12-1.3.12zm3.21-.74h-6.08l-.37-.2H203l-.36.2zm1.21-.81h-8.45l-.2-.2h8.84l-.19.2zm.73-.82h-10l-.17-.2h4.08c.23.04.62.08.93.08.39 0 .65-.04.9-.08h4.42l-.16.2zm.65-.81h-3.07l.28-.2h2.93l-.14.2zm.45-.82h-2.39l.23-.2h2.28l-.12.2zm.31-.81h-2l.14-.2h1.97l-.11.2zm.28-.82h-1.8l.14-.2h1.75l-.09.2zm.26-.81h-1.72l.11-.2h1.69l-.08.2zm.17-.81h-1.6l.06-.2h1.6l-.06.2zm.14-.82h-1.52l.03-.2h1.55l-.06.2zm.11-.81h-1.55l.06-.2h1.52l-.03.2zm.08-.82h-1.55l.03-.2h1.52v.2zm-6.42-2.65h6.5v.2h-6.5v-.2zm0 .82h6.5v.2h-6.5v-.2zm0 1.02v-.2h6.5v.2h-6.5zm29.72-12.02h-2.06v22.16h2.06V9.05zm-.28 11.98h-1.49v-.2h1.49v.2zm0-.82h-1.49v-.2h1.49v.2zm0-.81h-1.49v-.2h1.49v.2zm0-.82h-1.49v-.2h1.49v.2zm0-.81h-1.49v-.2h1.49v.2zm0-.82h-1.49v-.2h1.49v.2zm0-.81h-1.49v-.2h1.49v.2zm0-.82h-1.49v-.2h1.49v.2zm0-.81h-1.49v-.2h1.49v.2zm0-.81h-1.49v-.2h1.49v.2zm0-.82h-1.49v-.2h1.49v.2zm0-.81h-1.49v-.2h1.49v.2zm0-.82h-1.49v-.2h1.49v.2zm0-.81h-1.49v-.2h1.49v.2zm0-.82h-1.49v-.2h1.49v.2zM89.68 19.36l1.92 6.15h-3.91l1.94-6.15h.05zm128.14 9.4c-2.03 0-3.55-1.43-3.55-5.54V9.05h-2.03v15.07c0 4.93 2.34 7.9 5.58 7.9 3.13 0 5.66-2.85 5.66-7.9V9.05h-2.06v14.17c.01 4.12-1.37 5.54-3.6 5.54zm-5.29-10.67h1.46v.2h-1.46v-.2zm0 .82h1.46v.2h-1.46v-.2zm0 .81h1.46v.2h-1.46v-.2zm0 .82h1.46v.2h-1.46v-.2zm0 .81h1.46v.2h-1.46v-.2zm0 .82h1.46v.2h-1.46v-.2zm0 .81h1.46v.2h-1.46v-.2zm0 .82h1.46l.03.2h-1.49v-.2zm0 .81h1.49l.06.2h-1.55v-.2zm.05.82h1.55l.06.2h-1.58l-.03-.2zm.12.81h1.63l.06.2h-1.66l-.03-.2zm.17.81h1.72l.14.2h-1.83l-.03-.2zm.25.82h1.94l.17.2h-2.03l-.08-.2zm.34.81h2.45l.34.2h-2.67l-.12-.2zm5.85 2.65h-3.01l-.51-.2h4.05l-.53.2zm1.44-.81h-5.86l-.2-.2h6.28l-.22.2zm.82-.82h-7.46l-.14-.2h7.77l-.17.2zm.53-.81h-2.62l.37-.2h2.37l-.12.2zm-.39-10.8h1.49v.2h-1.49v-.2zm0 .82h1.49v.2h-1.49v-.2zm0 .81h1.49v.2h-1.49v-.2zm0 .82h1.49v.2h-1.49v-.2zm0 .81h1.49v.2h-1.49v-.2zm0 .82h1.49v.2h-1.49v-.2zm0 .81h1.49v.2h-1.49v-.2zm-.03.82h1.52v.2h-1.52v-.2zm-.03.81h1.55l-.03.2h-1.55l.03-.2zm-.08.82h1.58l-.06.2h-1.58l.06-.2zm-.2.81h1.66l-.06.2h-1.66l.06-.2zm-.25.81h1.72l-.06.2H221l.12-.2zm-.45.82h1.89l-.06.2h-1.97l.14-.2zM26.82 9.05h-2.06v22.16h2.06V9.05zm-.28 11.98h-1.49v-.2h1.49v.2zm0-.82h-1.49v-.2h1.49v.2zm0-.81h-1.49v-.2h1.49v.2zm0-.82h-1.49v-.2h1.49v.2zm0-.81h-1.49v-.2h1.49v.2zm0-.82h-1.49v-.2h1.49v.2zm0-.81h-1.49v-.2h1.49v.2zm0-.82h-1.49v-.2h1.49v.2zm0-.81h-1.49v-.2h1.49v.2zm0-.81h-1.49v-.2h1.49v.2zm0-.82h-1.49v-.2h1.49v.2zm0-.81h-1.49v-.2h1.49v.2zm0-.82h-1.49v-.2h1.49v.2zm0-.81h-1.49v-.2h1.49v.2zm0-.82h-1.49v-.2h1.49v.2zm83.31-.57h-2.06v22.16h2.06v-9.65h8.7v9.65h2.03V9.05h-2.03v9.61h-8.7V9.05zm-1.78.37h1.49v.2h-1.49v-.2zm0 .81h1.49v.2h-1.49v-.2zm0 .82h1.49v.2h-1.49v-.2zm0 .81h1.49v.2h-1.49v-.2zm0 .82h1.49v.2h-1.49v-.2zm0 .81h1.49v.2h-1.49v-.2zm0 .82h1.49v.2h-1.49v-.2zm0 .81h1.49v.2h-1.49v-.2zm0 .82h1.49v.2h-1.49v-.2zm0 .81h1.49v.2h-1.49v-.2zm0 .81h1.49v.2h-1.49v-.2zm0 .82h1.49v.2h-1.49v-.2zm12.22 2.65h-12.22v-.2h12.22v.2zm0-.82h-12.22v-.2h12.22v.2zM118.8 9.42h1.49v.2h-1.49v-.2zm0 .81h1.49v.2h-1.49v-.2zm0 .82h1.49v.2h-1.49v-.2zm0 .81h1.49v.2h-1.49v-.2zm0 .82h1.49v.2h-1.49v-.2zm0 .81h1.49v.2h-1.49v-.2zm0 .82h1.49v.2h-1.49v-.2zm0 .81h1.49v.2h-1.49v-.2zm0 .82h1.49v.2h-1.49v-.2zm0 .81h1.49v.2h-1.49v-.2zm0 .81h1.49v.2h-1.49v-.2zm0 .82h1.49v.2h-1.49v-.2zm1.49.81v.2h-12.22v-.2h12.22zm150.31 7.5l-.62 2.04h6.03l-.65-2.04h-4.76zm.31.49h4.08l.08.2h-4.22l.06-.2zm-.31 1.01l.06-.2h4.56l.06.2h-4.68zM173.92 9.05h-2.06v22.16h9.41v-2.85h-7.35V9.05zm7.06 21.67h-8.76l.14-.2h8.62v.2zm0-.82h-8.17l.14-.2h8.02v.2zm0-1.01v.2h-7.6l.17-.2h7.43zM37.01 22.66l-3.97-13.6H30.9l6.31 21.3 6.31-21.3h-2.14l-3.94 13.6h-.43zM31.33 9.5h1.52l.06.2h-1.49l-.09-.2zm.22.81h1.52l.06.2h-1.49l-.09-.2zm.25.82h1.52l.06.2h-1.49l-.09-.2zm.23.81h1.52l.06.2h-1.49l-.09-.2zm.25.82h1.52l.06.2h-1.49l-.09-.2zm.26.81h1.49l.06.2h-1.46l-.09-.2zm.22.82h1.52l.06.2h-1.49l-.09-.2zm.26.81h1.49l.06.2H33.1l-.08-.2zm.25.82h1.49l.06.2h-1.46l-.09-.2zm.22.81h1.49l.06.2h-1.46l-.09-.2zm.26.82h1.49l.06.2h-1.46l-.09-.2zm.22.81h1.49l.06.2h-1.46l-.09-.2zm.26.82h1.49l.06.2h-1.46l-.09-.2zm.22.81h1.49l.06.2h-1.46l-.09-.2zm.26.81h1.46l.06.2h-1.44l-.08-.2zm.25.82h1.44l.06.2h-1.41l-.09-.2zm.22.81h1.46l.06.2h-1.44l-.08-.2zm.26.82h1.44l.06.2h-1.41l-.09-.2zm.22.81h1.46l.06.2h-1.44l-.08-.2zm.26.82h1.44l.06.2H36l-.08-.2zm1.32 4.23l-.06-.16h.11l-.05.16zm.2-.77h-.45l-.08-.2h.62l-.09.2zm.25-.82h-.96l-.08-.2h1.13l-.09.2zm.17-.81h-1.38l-.08-.2h1.41l.05.2zm-.23-.81h-1.38l-.08-.2h1.41l.05.2zm228.24 5.21h2.22l4.73-14.74h.39l4.67 14.74h2.28L272.99 9.3l-7.12 21.91zm3.32-4.64h-1.55l.08-.2h1.55l-.08.2zm.26-.82h-1.52l.06-.2h1.55l-.09.2zm.25-.81h-1.52l.08-.2h1.52l-.08.2zm.25-.82h-1.49l.06-.2h1.52l-.09.2zm.28-.81h-1.52l.08-.2h1.52l-.08.2zm.26-.82H269l.06-.2h1.52l-.09.2zm.25-.81h-1.49l.06-.2h1.52l-.09.2zm.28-.82h-1.52l.08-.2h1.52l-.08.2zm.26-.81h-1.49l.06-.2h1.52l-.09.2zm.28-.82h-1.52l.08-.2h1.52l-.08.2zm.25-.81h-1.49l.06-.2h1.52l-.09.2zm.28-.81h-1.52l.08-.2h1.52l-.08.2zm.26-.82h-1.49l.06-.2h1.52l-.09.2zm5.97 9.78h-1.66l-.08-.2h1.69l.05.2zm-.26-.82h-1.63l-.08-.2h1.63l.08.2zm-.28-.81h-1.6l-.08-.2h1.63l.05.2zm-.25-.82h-1.61l-.08-.2h1.61l.08.2zm-.28-.81h-1.55l-.08-.2h1.58l.05.2zm-.26-.82h-1.55l-.08-.2h1.55l.08.2zm-.28-.81h-1.52l-.08-.2h1.55l.05.2zm-.25-.82h-1.52l-.08-.2h1.52l.08.2zm-.28-.81h-1.49l-.08-.2h1.52l.05.2zm-.26-.82h-1.49l-.08-.2h1.49l.08.2zm-.28-.81h-1.46l-.08-.2h1.49l.05.2zm-.25-.81h-1.46l-.08-.2h1.46l.08.2zm-.28-.82h-1.44l-.08-.2h1.46l.06.2zm-.26-.81h-3.75l.08-.2h3.58l.09.2zm-.28-.82h-3.18l.06-.2h3.07l.05.2zm-.25-.81h-2.68l.06-.2h2.53l.09.2zm-.29-.82h-2.14l.08-.2h2l.06.2zm-.25-.81h-1.61l.06-.2h1.46l.09.2zm-.28-.82h-1.07l.08-.2h.93l.06.2zm-.25-.81h-.53l.06-.2h.39l.08.2zm-.31-.73l.06-.16.06.16h-.12zM.27.27v40.17h288.58V.27H.27zm16.81 32.08l-4.31-9.12v9.12H8.63V7.91h7.07c3.63 0 6 3.18 6 7.78 0 4.28-1.49 6.68-4 7.58l4.56 9.08h-5.18zm10.78 0h-4.14V7.91h4.14v24.44zm9.61.81h-.51L29.5 7.91h4.31l3.41 11.77 3.41-11.77h4.31l-7.47 25.25zm13.23-.81h-4.14V7.91h4.14v24.44zm14.2 0H53.41V7.91h11.18v5.29h-7.04v4.4h6.5v5.21h-6.5v4.4h7.35v5.14zm10.44 0l-4.31-9.12v9.12H66.9V7.91h7.07c3.63 0 6 3.18 6 7.78 0 4.28-1.49 6.68-4 7.58l4.56 9.08h-5.19zm18.54 0l-.84-2.52h-6.67l-.82 2.52H81.1L89.31 7.1h.73l8.28 25.25h-4.44zm27.74 0h-4.11V22.7h-6.62v9.65h-4.14V7.91h4.14v9.61h6.62V7.91h4.11v24.44zm11.97.81c-5.35 0-9.1-5.74-9.1-13.03 0-7.29 3.75-13.03 9.1-13.03 5.32 0 9.1 5.74 9.1 13.03-.01 7.29-3.78 13.03-9.1 13.03zm21.82-19.95h-3.83v19.14h-4.14V13.21h-3.8v-5.3h11.77v5.3zm13.41 19.14h-11.49V7.91h11.18v5.29h-7.04v4.4h6.5v5.21h-6.5v4.4h7.35v5.14zm13.49 0h-11.49V7.91h4.14v19.3h7.35v5.14zm26.19-12.42c0 7.21-2.93 13.24-9.07 13.24-5.35 0-9.15-5.74-9.15-13.03 0-7.29 3.8-13.03 9.15-13.03 3.13 0 5.29 1.67 7.07 4.28l-2.87 3.83c-1.15-1.51-2.59-2.44-4.2-2.44-3.01 0-4.96 3.26-4.96 7.37 0 4.52 2.22 7.37 5.04 7.37 2.96 0 4.39-2.36 4.51-4.72h-4.82v-5.17h9.29v2.3zm16.02 4.19c0 5.78-2.98 9.04-6.7 9.04-3.86 0-6.62-3.42-6.62-9.04V7.91h4.11v15.31c0 3.26 1.07 4.4 2.51 4.4 1.58 0 2.56-1.14 2.56-4.4V7.91h4.14v16.21zm6.85 8.23h-4.14V7.91h4.14v24.44zm17.74 0h-4.31l-6.59-14.5v14.5h-4.14V7.91h4.36l6.56 14.5V7.91h4.11v24.44zm14.19 0h-11.49V7.91h11.18v5.29h-7.04v4.4h6.5v5.21h-6.5v4.4h7.35v5.14zm13.89 0l-.84-2.52h-6.67l-.82 2.52h-4.45l8.22-25.25h.73l8.28 25.25h-4.45zM82.55 31.21h2.22l4.73-14.74h.39l4.67 14.74h2.28L89.68 9.3l-7.13 21.91zm3.33-4.64h-1.55l.08-.2h1.55l-.08.2zm.25-.82h-1.52l.06-.2h1.55l-.09.2zm.26-.81h-1.52l.08-.2h1.52l-.08.2zm.25-.82h-1.49l.06-.2h1.52l-.09.2zm.28-.81H85.4l.08-.2H87l-.08.2zm.25-.82h-1.49l.06-.2h1.52l-.09.2zm.26-.81h-1.49l.06-.2h1.52l-.09.2zm.28-.82h-1.52l.08-.2h1.52l-.08.2zm.25-.81h-1.49l.06-.2h1.52l-.09.2zm.28-.82h-1.52l.08-.2h1.52l-.08.2zm.26-.81H87l.06-.2h1.52l-.08.2zm.28-.81h-1.52l.08-.2h1.52l-.08.2zm.25-.82h-1.49l.06-.2h1.52l-.09.2zM95 26.57h-1.66l-.08-.2h1.69l.05.2zm-.25-.82h-1.63l-.08-.2h1.63l.08.2zm-.28-.81h-1.6l-.08-.2h1.63l.05.2zm-.26-.82H92.6l-.08-.2h1.61l.08.2zm-.28-.81h-1.55l-.08-.2h1.58l.05.2zm-.25-.82h-1.55l-.08-.2h1.55l.08.2zm-.28-.81h-1.52l-.08-.2h1.55l.05.2zm-.26-.82h-1.52l-.08-.2h1.52l.08.2zm-.28-.81h-1.49l-.08-.2h1.52l.05.2zm-.25-.82h-1.49l-.08-.2h1.49l.08.2zm-.28-.81h-1.46l-.08-.2h1.49l.05.2zm-.26-.81h-1.46l-.08-.2h1.46l.08.2zm-.28-.82h-1.44l-.08-.2h1.46l.06.2zm-.25-.81h-3.75l.08-.2h3.58l.09.2zm-.28-.82h-3.18l.06-.2h3.07l.05.2zm-.26-.81h-2.68l.06-.2h2.53l.09.2zm-.28-.82h-2.14l.08-.2h2l.06.2zm-.25-.81h-1.61l.06-.2h1.46l.09.2zm-.28-.82h-1.07l.08-.2h.93l.06.2zm-.26-.81h-.53l.06-.2h.39l.08.2zm-.31-.73l.06-.16.06.16h-.12zM74.56 22.41c2.87-.49 4.36-2.57 4.36-6.48 0-4.2-2.14-6.88-4.96-6.88h-6.03v22.16h2.06v-8.76h1.86l4.14 8.76h2.79l-4.22-8.43v-.37zm2.08-1.3h-6.62v-.2h6.87l-.25.2zm.84-.82h-7.46v-.2h7.6l-.14.2zm.48-.81h-2.17l.23-.2h2.06l-.12.2zm.31-.82h-1.8l.14-.2h1.75l-.09.2zm.2-.81h-1.6l.08-.2h1.58l-.06.2zm.11-.81h-1.49l.03-.2h1.46v.2zm.06-.82h-1.41v-.2h1.41v.2zm-.03-.81H77.2v-.2h1.41v.2zm-.08-.82h-1.35l-.08-.2h1.44v.2zm-.12-.81h-1.52l-.08-.2h1.55l.05.2zm-.25-.82h-1.58l-.2-.2h1.72l.06.2zm-.31-.81h-1.97l-.31-.2h2.17l.11.2zM70.02 9.5h3.94l1.32.2h-5.27v-.2zm0 .81h6.34l.23.2h-6.56v-.2zm0 .82h7.18l.14.2h-7.32v-.2zm-.03.73h4.25c1.72 0 2.7 1.95 2.7 3.83 0 2.16-1.04 3.95-2.59 3.95h-4.36v-7.78zm.03 10.06v-.2h5.49l-.73.2h-4.76zm2.2.61h2v.2H72.3l-.08-.2zm6 8.35h-2.06l-.08-.2h2.06l.08.2zm-.37-.81h-2.08l-.08-.2h2.03l.13.2zm-.42-.82h-2.06l-.08-.2h2.03l.11.2zm-.4-.81h-2.06l-.08-.2h2l.14.2zm-.42-.82h-2.03l-.08-.2h2l.11.2zm-.39-.81h-2.03l-.08-.2h1.97l.14.2zm-.43-.81h-1.97l-.08-.2h1.94l.11.2zm-.39-.82h-1.97l-.08-.2h1.91l.14.2zm-.42-.81h-1.92l-.08-.2h1.89l.11.2zm-.4-.82h-1.91l-.08-.2h1.86l.13.2zm180.33-1.87h6.51v-2.93h-6.51v-6.68h7.04V9.05h-9.1v22.16h9.41v-2.85h-7.35v-6.68zm6.23-.57h-6.22v-.2h6.22v.2zm0-.82h-6.22v-.2h6.22v.2zm0-1.01v.2h-6.22v-.2h6.22zm.53-7.82h-7.15l-.14-.2h7.29v.2zm0-.82h-7.72l-.14-.2h7.86v.2zm0-1.02v.2h-8.28l-.14-.2h8.42zm.31 21.1h-8.76l.14-.2h8.62v.2zm0-.82h-8.17l.14-.2h8.02v.2zm0-1.01v.2h-7.6l.17-.2h7.43zm-101.55-7.21h6.5v-2.93h-6.5v-6.68h7.04V9.05h-9.1v22.16h9.41v-2.85h-7.35v-6.68zm6.22-.57h-6.22v-.2h6.22v.2zm0-.82h-6.22v-.2h6.22v.2zm0-1.01v.2h-6.22v-.2h6.22zm.53-7.82h-7.15l-.14-.2h7.29v.2zm0-.82h-7.72l-.14-.2h7.86v.2zm0-1.02v.2h-8.28l-.14-.2h8.42zm.31 21.1h-8.76l.14-.2h8.62v.2zm0-.82h-8.17l.14-.2h8.02v.2zm0-1.01v.2h-7.6l.17-.2h7.43zM56.5 21.68H63v-2.93h-6.5v-6.68h7.04V9.05h-9.1v22.16h9.41v-2.85H56.5v-6.68zm6.23-.57H56.5v-.2h6.22v.2zm0-.82H56.5v-.2h6.22v.2zm0-1.01v.2H56.5v-.2h6.23zm.53-7.82h-7.15l-.14-.2h7.29v.2zm0-.82h-7.72l-.14-.2h7.86v.2zm0-1.02v.2h-8.28l-.14-.2h8.42zm.31 21.1h-8.76l.14-.2h8.62v.2zm0-.82H55.4l.14-.2h8.03v.2zm0-1.01v.2h-7.6l.17-.2h7.43zm70.02-20.65c-4.7 0-8.05 5.25-8.05 11.89 0 6.64 3.35 11.81 8.05 11.81 4.67 0 8.05-5.17 8.05-11.81 0-6.64-3.38-11.89-8.05-11.89zm0 .45l1.49.16h-2.87l1.38-.16zm-2.88.77h5.74l.37.2h-6.48l.37-.2zm-1.15.81h8.05l.17.2h-8.45l.23-.2zm-1.47 1.63h2.96l-.37.2h-2.73l.14-.2zm-.53.82h2.37l-.2.2h-2.28l.11-.2zm-.39.81h2.08l-.17.2h-2.03l.12-.2zm-.37.82h1.91l-.11.2h-1.89l.09-.2zm-.28.81h1.77l-.11.2h-1.72l.06-.2zm-.23.82h1.69l-.08.2h-1.63l.02-.2zm-.17.81h1.6l-.06.2h-1.58l.04-.2zm-.22 1.63h1.55l-.06.2h-1.52l.03-.2zm-.06.81h1.52l-.03.2h-1.52l.03-.2zm-.03.82h1.52v.2h-1.52v-.2zm0 .81h1.52l.03.2h-1.52l-.03-.2zm.06.82h1.52l.06.2h-1.55l-.03-.2zm.14 1.02l-.06-.2h1.55l.06.2h-1.55zm1.49-4.89h-1.55l.03-.2h1.58l-.06.2zm6.09 10.95c-3.63 0-5.97-3.87-5.97-8.63s2.34-8.51 5.97-8.51c3.6 0 5.97 3.75 5.97 8.51s-2.37 8.63-5.97 8.63zm7.57-6.06h-1.58l.06-.2h1.55l-.03.2zm.09-.82h-1.52l.03-.2h1.55l-.06.2zm.08-.81h-1.55l.03-.2h1.52v.2zm.03-.82h-1.52v-.2h1.52v.2zm-.03-.81h-1.52v-.2h1.52v.2zm-.03-.82h-1.55l-.03-.2h1.55l.03.2zm-.08-.81h-1.58l-.06-.2h1.58l.06.2zm-.14-.82h-1.58l-.08-.2h1.6l.06.2zm-.2-.81h-1.63l-.08-.2h1.66l.05.2zm-.23-.81h-1.72l-.08-.2h1.75l.05.2zm-.25-.82h-1.83l-.14-.2h1.89l.08.2zm-.31-.81h-2l-.17-.2h2.06l.11.2zm-.39-.82h-2.25l-.2-.2h2.31l.14.2zm-.48-.81h-2.73l-.31-.2h2.9l-.03-.04.17.24zm-.62-.82h-3.89l-1.13-.12-1.04.12h-4.03l.23-.2h9.71l.15.2zm134.39 8.07l1.92 6.15H271l1.94-6.15h.05z" opacity=".7"/>
</svg>
