<svg id="Layer_1" xmlns="http://www.w3.org/2000/svg" viewBox="0 0 233.62 16.11">
  <style>.st0,.st1,.st2{fill:#ed2b2f;stroke:#000;stroke-width:.75;stroke-miterlimit:10}.st1,.st2{fill:#f5ea14}.st2{fill:#69bc45}
  </style>
  <path class="st0" d="M.38.85H6.4c3.1 0 5.11 1.87 5.11 4.58 0 2.52-1.27 3.94-3.41 4.46l3.89 5.35H7.58L3.9 9.88v5.38H.38V.85zm2.64 13.73V1.53H1.26v13.06h1.76zM6.74 7.1c.79 0 1.32-.82 1.32-1.66s-.62-1.58-1.42-1.58H3.9V7.1h2.84zM13.24.85h3.53v14.4h-3.53V.85zm2.64 13.73V9.45h-1.75v5.14h1.75zM18.16.85h3.67l2.9 6.94 2.9-6.94h3.67l-6.36 14.88h-.43L18.16.85zm11.98.68h-1.85L25.24 8.8l.91 2.06 3.99-9.33zM32.7.85h3.53v14.4H32.7V.85zm2.64 13.73V9.45h-1.75v5.14h1.75zM38.53.85h9.53v3.12h-6v2.59h5.54v3.07h-5.54v2.59h6.26v3.02h-9.79V.85zm2.64 12.05V3.3l-1.75-1.78v13.06l1.75-1.68zM50.03.85h6.02c3.1 0 5.11 1.87 5.11 4.58 0 2.52-1.27 3.94-3.41 4.46l3.89 5.35h-4.42l-3.67-5.38v5.38h-3.53V.85zm2.64 13.73V1.53h-1.75v13.06h1.75zm3.72-7.48c.79 0 1.32-.82 1.32-1.66s-.62-1.58-1.42-1.58h-2.74V7.1h2.84zM69.13.38h.62l7.06 14.88h-3.79l-.72-1.49h-5.69l-.7 1.49h-3.79L69.13.38zm-3.84 14.2l1.56-3.34h-1.94l-1.58 3.34h1.96zm5.81-3.33L69.45 7.6h-.05l-1.68 3.65h3.38zm2.5 3.33h1.99l-1.58-3.34h-1.94l1.53 3.34z"/>
  <path class="st1" d="M83.99.85h3.53v5.66h5.64V.85h3.5v14.4h-3.5V9.57h-5.64v5.69h-3.53V.85zm2.64 13.73V9.57h-1.75v5.02h1.75zm9.14 0V9.57h-1.73v5.02h1.73zM106.86.38c4.54 0 7.75 3.38 7.75 7.68s-3.22 7.68-7.75 7.68c-4.56 0-7.75-3.38-7.75-7.68S102.3.38 106.86.38zm0 14.64c3.46 0 6.07-2.3 6.72-5.45h-1.85c-.58 2.09-2.35 3.58-4.87 3.58s-4.3-1.51-4.87-3.58h-1.85c.63 3.17 3.24 5.45 6.72 5.45zm0-2.62c2.54 0 4.18-1.92 4.18-4.34s-1.63-4.34-4.18-4.34c-2.57 0-4.18 1.92-4.18 4.34s1.61 4.34 4.18 4.34zM118.65 3.98h-3.22V.85h10.03v3.12h-3.26v11.28h-3.55V3.98zm2.68 10.6V3.98h-1.85v10.61h1.85zM127.09.85h9.53v3.12h-6v2.59h5.54v3.07h-5.54v2.59h6.26v3.02h-9.79V.85zm2.64 12.05V3.3l-1.75-1.78v13.06l1.75-1.68zM138.59.85h3.53v11.38h6.26v3.02h-9.79V.85zm2.64 12.05V1.53h-1.75v13.06l1.75-1.69z"/>
  <path class="st2" d="M162.97.38c2.66 0 4.51.98 6.02 2.52l-2.45 2.26c-.98-.89-2.21-1.44-3.58-1.44-2.57 0-4.22 1.92-4.22 4.34 0 2.66 1.9 4.34 4.3 4.34 2.52 0 3.74-1.39 3.84-2.78h-4.1V6.57h7.92v1.37c0 4.25-2.5 7.8-7.73 7.8-4.56 0-7.8-3.38-7.8-7.68s3.24-7.68 7.8-7.68zm-4.92 6.19c.58-2.06 2.4-3.53 4.92-3.53 1.27 0 2.52.46 3.53 1.15l1.39-1.34c-1.25-1.18-2.86-1.8-4.92-1.8-3.5 0-6.14 2.33-6.77 5.52h1.85zM173 .85h3.5v9.02c0 1.92.91 2.59 2.14 2.59 1.34 0 2.18-.67 2.18-2.59V.85h3.53v9.55c0 3.41-2.54 5.33-5.71 5.33-3.29 0-5.64-2.02-5.64-5.33V.85zm2.65 5.79V1.53h-1.75v5.11h1.75zm7.82 0V1.53h-1.78v5.11h1.78zM186.66.85h3.53v14.4h-3.53V.85zm2.64 13.73V9.45h-1.75v5.14h1.75zM192.49.85h3.72l5.59 8.54V.85h3.5v14.4h-3.67l-5.62-8.57v8.57h-3.53V.85zm2.64 13.73V5.8l-1.75-2.76v11.55h1.75zm9.29-1.6V1.53h-1.73v8.76l1.73 2.69zM207.61.85h9.53v3.12h-6v2.59h5.54v3.07h-5.54v2.59h6.26v3.02h-9.79V.85zm2.64 12.05V3.3l-1.75-1.78v13.06l1.75-1.68zM225.35.38h.62l7.06 14.88h-3.79l-.72-1.49h-5.69l-.7 1.49h-3.79L225.35.38zm-3.84 14.2l1.56-3.34h-1.94l-1.58 3.34h1.96zm5.81-3.33l-1.66-3.65h-.05l-1.68 3.65h3.39zm2.49 3.33h1.99l-1.58-3.34h-1.94l1.53 3.34z"/>
<defs>
    <filter id="filter0_d" width="227.336" height="26.084" x="12.5967" y="10.108" color-interpolation-filters="sRGB" filterUnits="userSpaceOnUse">
      <feFlood flood-opacity="0" result="BackgroundImageFix"/>
      <feColorMatrix in="SourceAlpha" values="0 0 0 0 0 0 0 0 0 0 0 0 0 0 0 0 0 0 127 0"/>
      <feOffset dy="4"/>
      <feGaussianBlur stdDeviation="2"/>
      <feColorMatrix values="0 0 0 0 0 0 0 0 0 0 0 0 0 0 0 0 0 0 0.25 0"/>
      <feBlend in2="BackgroundImageFix" result="effect1_dropShadow"/>
      <feBlend in="SourceGraphic" in2="effect1_dropShadow" result="shape"/>
    </filter>
  </defs>
</svg>