<?xml version="1.0" encoding="utf-8"?>
<!-- Generator: Adobe Illustrator 23.0.6, SVG Export Plug-In . SVG Version: 6.00 Build 0)  -->
<svg version="1.1" id="Layer_1" xmlns="http://www.w3.org/2000/svg" xmlns:xlink="http://www.w3.org/1999/xlink" x="0px" y="0px"
	 viewBox="0 0 233.62 16.11" style="enable-background:new 0 0 233.62 16.11;" xml:space="preserve">
<style type="text/css">
	.st0{fill:#ED2B2F;stroke:#000000;stroke-width:0.75;stroke-miterlimit:10;}
	.st1{fill:#F5EA14;stroke:#000000;stroke-width:0.75;stroke-miterlimit:10;}
	.st2{fill:#69BC45;stroke:#000000;stroke-width:0.75;stroke-miterlimit:10;}
</style>
<g>
	<g>
		<path class="st0" d="M0.38,0.85H6.4c3.1,0,5.11,1.87,5.11,4.58c0,2.52-1.27,3.94-3.41,4.46l3.89,5.35H7.58L3.9,9.88v5.38H0.38
			V0.85z M3.02,14.58V1.53H1.26v13.06H3.02z M6.74,7.1c0.79,0,1.32-0.82,1.32-1.66c0-0.84-0.62-1.58-1.42-1.58H3.9V7.1H6.74z"/>
		<path class="st0" d="M13.24,0.85h3.53v14.4h-3.53V0.85z M15.88,14.58V9.45h-1.75v5.14H15.88z"/>
		<path class="st0" d="M18.16,0.85h3.67l2.9,6.94l2.9-6.94h3.67l-6.36,14.88h-0.43L18.16,0.85z M30.14,1.53h-1.85L25.24,8.8
			l0.91,2.06L30.14,1.53z"/>
		<path class="st0" d="M32.7,0.85h3.53v14.4H32.7V0.85z M35.34,14.58V9.45h-1.75v5.14H35.34z"/>
		<path class="st0" d="M38.53,0.85h9.53v3.12h-6v2.59h5.54v3.07h-5.54v2.59h6.26v3.02h-9.79V0.85z M41.17,12.9V3.3l-1.75-1.78v13.06
			L41.17,12.9z"/>
		<path class="st0" d="M50.03,0.85h6.02c3.1,0,5.11,1.87,5.11,4.58c0,2.52-1.27,3.94-3.41,4.46l3.89,5.35h-4.42l-3.67-5.38v5.38
			h-3.53V0.85z M52.67,14.58V1.53h-1.75v13.06H52.67z M56.39,7.1c0.79,0,1.32-0.82,1.32-1.66c0-0.84-0.62-1.58-1.42-1.58h-2.74V7.1
			H56.39z"/>
		<path class="st0" d="M69.13,0.38h0.62l7.06,14.88h-3.79l-0.72-1.49h-5.69l-0.7,1.49h-3.79L69.13,0.38z M65.29,14.58l1.56-3.34
			h-1.94l-1.58,3.34H65.29z M71.1,11.25L69.45,7.6H69.4l-1.68,3.65H71.1z M73.6,14.58h1.99l-1.58-3.34h-1.94L73.6,14.58z"/>
		<path class="st1" d="M83.99,0.85h3.53v5.66h5.64V0.85h3.5v14.4h-3.5V9.57h-5.64v5.69h-3.53V0.85z M86.63,14.58V9.57h-1.75v5.02
			H86.63z M95.77,14.58V9.57h-1.73v5.02H95.77z"/>
		<path class="st1" d="M106.86,0.38c4.54,0,7.75,3.38,7.75,7.68s-3.22,7.68-7.75,7.68c-4.56,0-7.75-3.38-7.75-7.68
			S102.3,0.38,106.86,0.38z M106.86,15.02c3.46,0,6.07-2.3,6.72-5.45h-1.85c-0.58,2.09-2.35,3.58-4.87,3.58
			c-2.52,0-4.3-1.51-4.87-3.58h-1.85C100.77,12.74,103.38,15.02,106.86,15.02z M106.86,12.4c2.54,0,4.18-1.92,4.18-4.34
			s-1.63-4.34-4.18-4.34c-2.57,0-4.18,1.92-4.18,4.34S104.29,12.4,106.86,12.4z"/>
		<path class="st1" d="M118.65,3.98h-3.22V0.85h10.03v3.12h-3.26v11.28h-3.55V3.98z M121.33,14.58V3.98h-1.85v10.61H121.33z"/>
		<path class="st1" d="M127.09,0.85h9.53v3.12h-6v2.59h5.54v3.07h-5.54v2.59h6.26v3.02h-9.79V0.85z M129.73,12.9V3.3l-1.75-1.78
			v13.06L129.73,12.9z"/>
		<path class="st1" d="M138.59,0.85h3.53v11.38h6.26v3.02h-9.79V0.85z M141.23,12.9V1.53h-1.75v13.06L141.23,12.9z"/>
		<path class="st2" d="M162.97,0.38c2.66,0,4.51,0.98,6.02,2.52l-2.45,2.26c-0.98-0.89-2.21-1.44-3.58-1.44
			c-2.57,0-4.22,1.92-4.22,4.34c0,2.66,1.9,4.34,4.3,4.34c2.52,0,3.74-1.39,3.84-2.78h-4.1V6.57h7.92v1.37c0,4.25-2.5,7.8-7.73,7.8
			c-4.56,0-7.8-3.38-7.8-7.68S158.41,0.38,162.97,0.38z M158.05,6.57c0.58-2.06,2.4-3.53,4.92-3.53c1.27,0,2.52,0.46,3.53,1.15
			l1.39-1.34c-1.25-1.18-2.86-1.8-4.92-1.8c-3.5,0-6.14,2.33-6.77,5.52H158.05z"/>
		<path class="st2" d="M173,0.85h3.5v9.02c0,1.92,0.91,2.59,2.14,2.59c1.34,0,2.18-0.67,2.18-2.59V0.85h3.53v9.55
			c0,3.41-2.54,5.33-5.71,5.33c-3.29,0-5.64-2.02-5.64-5.33V0.85z M175.65,6.64V1.53h-1.75v5.11H175.65z M183.47,6.64V1.53h-1.78
			v5.11H183.47z"/>
		<path class="st2" d="M186.66,0.85h3.53v14.4h-3.53V0.85z M189.3,14.58V9.45h-1.75v5.14H189.3z"/>
		<path class="st2" d="M192.49,0.85h3.72l5.59,8.54V0.85h3.5v14.4h-3.67l-5.62-8.57v8.57h-3.53V0.85z M195.13,14.58V5.8l-1.75-2.76
			v11.55H195.13z M204.42,12.98V1.53h-1.73v8.76L204.42,12.98z"/>
		<path class="st2" d="M207.61,0.85h9.53v3.12h-6v2.59h5.54v3.07h-5.54v2.59h6.26v3.02h-9.79V0.85z M210.25,12.9V3.3l-1.75-1.78
			v13.06L210.25,12.9z"/>
		<path class="st2" d="M225.35,0.38h0.62l7.06,14.88h-3.79l-0.72-1.49h-5.69l-0.7,1.49h-3.79L225.35,0.38z M221.51,14.58l1.56-3.34
			h-1.94l-1.58,3.34H221.51z M227.32,11.25l-1.66-3.65h-0.05l-1.68,3.65H227.32z M229.81,14.58h1.99l-1.58-3.34h-1.94L229.81,14.58z
			"/>
	</g>
</g>
</svg>
